<?xml version="1.0" standalone="no"?>
<!DOCTYPE svg PUBLIC "-//W3C//DTD SVG 20010904//EN"
 "http://www.w3.org/TR/2001/REC-SVG-20010904/DTD/svg10.dtd">
<svg version="1.0" xmlns="http://www.w3.org/2000/svg"
 width="797.000000pt" height="797.000000pt" viewBox="0 0 797.000000 797.000000"
 preserveAspectRatio="xMidYMid meet">
<metadata>
Created by potrace 1.14, written by Peter Selinger 2001-2017
</metadata>
<g transform="translate(0.000000,797.000000) scale(0.100000,-0.100000)"
fill="#000000" stroke="none">
<path d="M3925 7964 c-5 -2 -59 -15 -120 -29 -60 -14 -117 -28 -125 -30 -17
-4 -108 -25 -130 -30 -8 -2 -63 -15 -123 -29 -59 -14 -118 -28 -130 -30 -12
-3 -92 -21 -177 -41 -85 -20 -164 -38 -175 -41 -11 -2 -47 -11 -80 -19 -33 -9
-73 -18 -90 -21 -16 -3 -57 -12 -90 -21 -68 -17 -66 -17 -120 -28 -22 -5 -42
-10 -45 -10 -3 -1 -16 -5 -30 -8 -14 -4 -65 -16 -115 -27 -99 -23 -145 -34
-340 -80 -71 -18 -139 -34 -150 -36 -11 -2 -36 -7 -55 -11 -46 -9 -50 -10 -52
-13 -3 -2 -15 -4 -58 -13 -14 -3 -47 -11 -75 -17 -27 -6 -57 -13 -65 -15 -8
-2 -35 -8 -60 -14 -25 -7 -56 -14 -70 -17 -14 -3 -43 -10 -65 -16 -22 -5 -47
-11 -55 -13 -8 -2 -48 -11 -89 -20 -40 -9 -80 -19 -90 -20 -9 -2 -17 -4 -18
-5 -4 -3 -11 -5 -81 -20 l-62 -13 0 -3363 c0 -1850 3 -3364 8 -3365 4 0 16 -2
27 -4 11 -2 38 -7 60 -10 22 -3 52 -7 67 -10 16 -3 40 -7 55 -9 67 -9 167 -27
174 -32 5 -3 26 -6 46 -8 21 -2 49 -6 63 -10 14 -3 36 -8 50 -10 14 -3 36 -7
50 -10 13 -3 42 -8 65 -11 22 -3 47 -8 55 -10 8 -2 29 -7 45 -9 17 -3 53 -10
80 -16 28 -6 64 -12 80 -15 116 -19 140 -23 140 -25 0 -2 18 -5 85 -16 25 -4
47 -8 50 -9 21 -5 71 -15 100 -19 19 -3 60 -10 90 -16 30 -6 66 -13 80 -16 14
-2 36 -7 50 -9 14 -3 39 -8 55 -10 17 -3 50 -10 75 -15 25 -5 59 -12 75 -14
17 -3 53 -9 80 -14 28 -6 91 -17 140 -26 50 -9 122 -23 160 -31 39 -8 84 -16
100 -19 17 -3 46 -8 65 -12 19 -4 46 -8 60 -10 14 -1 25 -3 25 -4 0 -3 72 -17
125 -26 19 -3 69 -12 110 -20 41 -8 86 -16 100 -18 14 -3 25 -5 25 -6 0 -1 9
-3 20 -4 11 -1 36 -5 55 -9 19 -4 49 -9 65 -12 17 -2 41 -8 55 -12 14 -4 188
-9 388 -10 l362 -4 0 3986 0 3985 -357 -1 c-197 0 -362 -2 -368 -5z m60 -3989
c0 -2914 -2 -3310 -15 -3308 -8 2 -112 21 -230 44 -118 22 -228 43 -245 45
-16 3 -41 7 -55 10 -14 3 -36 8 -50 10 -48 9 -295 55 -325 61 -16 4 -37 7 -45
9 -40 5 -97 16 -110 19 -8 3 -32 7 -54 11 -21 3 -47 8 -57 10 -11 2 -27 6 -38
8 -10 2 -34 7 -52 10 -19 3 -44 8 -55 10 -12 2 -37 7 -55 10 -19 3 -45 8 -59
11 -14 3 -50 9 -80 15 -30 6 -66 12 -80 15 -14 3 -50 9 -80 15 -73 13 -95 18
-159 31 -30 6 -64 12 -75 14 -19 2 -102 17 -166 30 -14 3 -61 12 -105 20 -102
18 -123 23 -133 28 -5 4 -9 5590 -3 5644 1 11 18 17 86 29 17 3 75 16 130 29
202 49 300 71 340 79 11 2 40 9 65 16 25 7 56 14 70 16 14 3 33 7 42 10 9 3
25 7 35 9 18 4 104 24 283 65 52 12 103 23 113 25 10 2 26 6 35 9 9 3 28 7 42
10 24 5 183 42 225 52 11 3 31 7 45 10 14 3 43 10 65 16 22 5 49 12 60 14 31
6 46 10 260 59 110 26 209 49 220 51 42 7 136 32 141 36 2 3 19 5 37 4 l32 -1
0 -3310z"/>
<path d="M3390 4308 c-105 -30 -180 -160 -184 -317 -3 -112 35 -211 106 -280
42 -42 65 -53 115 -54 58 -1 70 4 112 39 78 67 116 180 109 317 -12 202 -126
333 -258 295z"/>
<path d="M5319 7285 c-4 -58 -4 -622 -1 -632 3 -10 112 -13 501 -13 l496 0 0
-2655 c0 -2353 -2 -2655 -15 -2656 -8 0 -233 -1 -500 -1 l-485 -1 1 -326 c1
-179 2 -328 3 -331 0 -3 373 -6 829 -5 l827 0 0 3320 0 3320 -827 0 c-823 0
-828 0 -829 -20z"/>
</g>
</svg>
