<svg width="100" height="101" fill="none" xmlns="http://www.w3.org/2000/svg"><ellipse cx="85.057" cy="55.575" rx="2.299" ry="2.479" fill="#fff"/><mask id="path-2-inside-1" fill="#fff"><rect x="38.697" y=".204" width="58.237" height="97.108" rx="2"/></mask><rect x="38.697" y=".204" width="58.237" height="97.108" rx="2" stroke="#fff" stroke-width="8" stroke-linecap="round" stroke-linejoin="bevel" mask="url(#path-2-inside-1)"/><path fill="#fff" d="M0 94.832h100v5.372H0z"/><mask id="path-4-inside-2" fill="#fff"><path fill-rule="evenodd" clip-rule="evenodd" d="M22 13.681v-.117C22 7.178 18.418 2 14 2S6 7.178 6 13.564v.117h16z"/></mask><path d="M22 13.681v2h1.986L24 13.695l-2-.014zm-16 0l-2 .014.014 1.986H6v-2zm14-.117v.103l4 .028v-.13h-4zM14 4c1.367 0 2.818.799 4.012 2.525 1.189 1.718 1.988 4.2 1.988 7.04h4c0-3.55-.992-6.849-2.698-9.316C19.6 1.79 17.052 0 14 0v4zm-6 9.564c0-2.838.8-5.32 1.988-7.04C11.182 4.8 12.633 4 14 4V0c-3.052 0-5.6 1.79-7.302 4.25C4.992 6.715 4 10.015 4 13.563h4zm0 .103v-.103H4v.13l4-.027zm-2 2.014h16v-4H6v4z" fill="#fff" mask="url(#path-4-inside-2)"/><mask id="path-6-inside-3" fill="#fff"><path fill-rule="evenodd" clip-rule="evenodd" d="M11.5 11.435a8.5 8.5 0 000 17h5a8.5 8.5 0 000-17h-5zm5.018 5.874a2.903 2.903 0 01-1.253 2.409l-.011.008v5.606h-2.99v-5.607l-.01-.007A2.903 2.903 0 0111 17.309c0-1.587 1.235-2.874 2.76-2.874 1.523 0 2.758 1.287 2.758 2.874z"/></mask><path fill-rule="evenodd" clip-rule="evenodd" d="M11.5 11.435a8.5 8.5 0 000 17h5a8.5 8.5 0 000-17h-5zm5.018 5.874a2.903 2.903 0 01-1.253 2.409l-.011.008v5.606h-2.99v-5.607l-.01-.007A2.903 2.903 0 0111 17.309c0-1.587 1.235-2.874 2.76-2.874 1.523 0 2.758 1.287 2.758 2.874z" fill="#fff"/><path d="M15.265 19.718l.56.828h.002l-.562-.828zm-.011.008l-.56-.829a1 1 0 00-.44.829h1zm0 5.606v1a1 1 0 001-1h-1zm-2.99 0h-1a1 1 0 001 1v-1zm0-5.607h1a1 1 0 00-.445-.832l-.554.832zm0 0l-.56.829.006.004.554-.832zm-.01-.007l-.563.827.002.002.56-.829zM4 19.935a7.5 7.5 0 017.5-7.5v-2a9.5 9.5 0 00-9.5 9.5h2zm7.5 7.5a7.5 7.5 0 01-7.5-7.5H2a9.5 9.5 0 009.5 9.5v-2zm5 0h-5v2h5v-2zm7.5-7.5a7.5 7.5 0 01-7.5 7.5v2a9.5 9.5 0 009.5-9.5h-2zm-7.5-7.5a7.5 7.5 0 017.5 7.5h2a9.5 9.5 0 00-9.5-9.5v2zm-5 0h5v-2h-5v2zm4.327 8.11a3.903 3.903 0 001.691-3.236h-2c0 .675-.333 1.254-.816 1.582l1.125 1.654zm-.013.009l.01-.008-1.12-1.656-.01.007 1.12 1.657zm.44-.828h-2 2zm0 2.606v-2.607h-2v2.607h2zm0 3v-3h-2v3h2zm-3.99 1h2.99v-2h-2.99v2zm-1-4v3h2v-3h-2zm0-2.607v2.607h2v-2.607h-2zm.446.832l1.11-1.664-1.11 1.665zm-.017-.01l.011.007 1.12-1.657-.01-.007-1.12 1.657zM10 17.309c0 1.343.665 2.539 1.691 3.236l1.125-1.654A1.903 1.903 0 0112 17.309h-2zm3.76-3.874c-2.115 0-3.76 1.774-3.76 3.874h2c0-1.074.826-1.874 1.76-1.874v-2zm3.758 3.874c0-2.1-1.645-3.874-3.759-3.874v2c.934 0 1.76.8 1.76 1.874h2z" fill="#fff" mask="url(#path-6-inside-3)"/></svg>