<svg width="100" height="100" fill="none" xmlns="http://www.w3.org/2000/svg"><mask id="path-1-inside-1" fill="#fff"><path fill-rule="evenodd" clip-rule="evenodd" d="M90.308 0H100v100h-9.692V9.362H9.692V100H0V0h90.308z"/></mask><path d="M100 0h4v-4h-4v4zm-9.692 0v-4h-4v4h4zM100 100v4h4v-4h-4zm-9.692 0h-4v4h4v-4zm0-90.638h4v-4h-4v4zm-80.616 0v-4h-4v4h4zm0 90.638v4h4v-4h-4zM0 100h-4v4h4v-4zM0 0v-4h-4v4h4zm90.308 0v4h4V0h-4zM100-4h-9.692v8H100v-8zm4 104V0h-8v100h8zm-13.692 4H100v-8h-9.692v8zm-4-94.638V100h8V9.362h-8zm4-4H9.692v8h80.616v-8zM13.692 100V9.362h-8V100h8zM0 104h9.692v-8H0v8zM-4 9.362V100h8V9.362h-8zm8 0V0h-8v9.362h8zM0 4h9.692v-8H0v8zm9.692 0h80.616v-8H9.692v8zm76.616-4h8-8z" fill="#fff" mask="url(#path-1-inside-1)"/><rect x="8.632" y="7.152" width="12.692" height="84.276" rx="6.346" stroke="#fff" stroke-width="3" stroke-linejoin="round"/><rect x="65.901" y="7.152" width="12.692" height="84.276" rx="6.346" stroke="#fff" stroke-width="3" stroke-linejoin="round"/><rect x="21.407" y="7.152" width="12.692" height="84.276" rx="6.346" stroke="#fff" stroke-width="3" stroke-linejoin="round"/><rect x="78.676" y="7.152" width="12.692" height="84.276" rx="6.346" stroke="#fff" stroke-width="3" stroke-linejoin="round"/><path fill="#fff" d="M19.677 8.936h2.937v2.128h-2.937zm57.269 0h2.937v2.128h-2.937z"/></svg>