<svg width="100" height="100" fill="none" xmlns="http://www.w3.org/2000/svg"><mask id="path-1-inside-1" fill="#fff"><rect y="4.858" width="58.687" height="95.142" rx="2"/></mask><rect y="4.858" width="58.687" height="95.142" rx="2" stroke="#fff" stroke-width="8" stroke-linecap="round" stroke-linejoin="bevel" mask="url(#path-1-inside-1)"/><mask id="path-2-inside-2" fill="#fff"><path fill-rule="evenodd" clip-rule="evenodd" d="M100 0H32.818v6.746H93.05V100H100V0z"/></mask><path d="M32.818 0v-3a3 3 0 00-3 3h3zM100 0h3a3 3 0 00-3-3v3zM32.818 6.746h-3a3 3 0 003 3v-3zm60.232 0h3a3 3 0 00-3-3v3zm0 93.254h-3a3 3 0 003 3v-3zm6.95 0v3a3 3 0 003-3h-3zm0-93.254v-3a3 3 0 00-3 3h3zm0 0v3a3 3 0 003-3h-3zM32.818 3H100v-6H32.818v6zm3 3.746V0h-6v6.746h6zm57.232-3H32.818v6H93.05v-6zm3 96.254V6.746h-6V100h6zm3.95-3h-6.95v6H100v-6zM97 6.746V100h6V6.746h-6zm3-3v6-6zM97 0v6.746h6V0h-6z" fill="#fff" mask="url(#path-2-inside-2)"/><ellipse cx="47.49" cy="55.061" rx="2.317" ry="2.429" fill="#fff"/><path fill="#fff" d="M53.282 97.571H100V100H53.282z"/></svg>