<svg width="43" height="104" fill="none" xmlns="http://www.w3.org/2000/svg"><path d="M41 36.783V2H2v100h39V48.377" stroke="#fff" stroke-width="3" stroke-linecap="round" stroke-linejoin="round"/><path d="M41 36v16.5" stroke="#fff" stroke-width="3"/><path fill-rule="evenodd" clip-rule="evenodd" d="M21.522 65c6.911 0 12.514-5.596 12.514-12.5S28.433 40 21.522 40 9.008 45.596 9.008 52.5 14.61 65 21.522 65zm0-19c1.751 0 3.203 1.337 3.462 3.084.027.183.042.37.042.562a3.68 3.68 0 01-1.606 3.065v7.113h-3.796V52.71a3.68 3.68 0 01-1.606-3.065c0-.191.014-.379.041-.562C18.32 47.337 19.77 46 21.522 46z" fill="#fff"/></svg>