<svg width="180" height="145" viewBox="0 0 180 145" fill="none" xmlns="http://www.w3.org/2000/svg">
<path d="M19.4842 116.156H4V4H129.129V24.0876M129.129 24.0876H157.586L176 69.7032M129.129 24.0876V69.7032M176 69.7032H129.129M176 69.7032V116.156H160.934M129.129 69.7032V92.7202M68.4476 116.156H111.971M70.1216 114.9C70.1216 129.461 58.3176 141.265 43.7566 141.265C29.1956 141.265 17.3916 129.461 17.3916 114.9C17.3916 100.339 29.1956 88.5353 43.7566 88.5353C58.3176 88.5353 70.1216 100.339 70.1216 114.9ZM163.027 114.9C163.027 129.461 151.223 141.265 136.662 141.265C122.101 141.265 110.297 129.461 110.297 114.9C110.297 100.339 122.101 88.5353 136.662 88.5353C151.223 88.5353 163.027 100.339 163.027 114.9Z" stroke="#00a64c" stroke-width="7"/>
</svg>
