<svg width="191" height="180" viewBox="0 0 191 180" fill="none" xmlns="http://www.w3.org/2000/svg">
<path d="M3 3V0H0V3H3ZM3 176.5H0V179.5H3V176.5ZM79.5 176.5V179.5H82.5V176.5H79.5ZM79.5 3H82.5V0H79.5V3ZM19.5 159.5H16.5V162.5H19.5V159.5ZM62 159.5V162.5H65V159.5H62ZM62 20H65V17H62V20ZM19.5 20V17H16.5V20H19.5ZM111.5 3.5V0.5H108.5V3.5H111.5ZM111.5 177H108.5V180H111.5V177ZM188 177V180H191V177H188ZM188 3.5H191V0.5H188V3.5ZM151.114 19.2854C152.653 18.6701 153.401 16.9242 152.785 15.3858C152.17 13.8475 150.424 13.0992 148.886 13.7146L151.114 19.2854ZM125 26.5L123.886 23.7146C122.747 24.1702 122 25.2733 122 26.5H125ZM125 88H122C122 89.2651 122.794 90.3942 123.984 90.8227L125 88ZM148.984 99.8227C150.543 100.384 152.261 99.5751 152.823 98.0162C153.384 96.4572 152.575 94.7385 151.016 94.1773L148.984 99.8227ZM150.614 13.7146C149.076 13.0992 147.33 13.8475 146.715 15.3858C146.099 16.9242 146.847 18.6701 148.386 19.2854L150.614 13.7146ZM174.5 26.5H177.5C177.5 25.2733 176.753 24.1702 175.614 23.7146L174.5 26.5ZM174.5 88L175.516 90.8227C176.706 90.3942 177.5 89.2651 177.5 88H174.5ZM148.484 94.1773C146.925 94.7385 146.116 96.4572 146.677 98.0162C147.239 99.5751 148.957 100.384 150.516 99.8227L148.484 94.1773ZM125.5 108L126.971 105.385L122.5 102.87V108H125.5ZM125.5 163H122.5V166H125.5V163ZM141.5 163V166H144.5V163H141.5ZM141.5 117H144.5V115.245L142.971 114.385L141.5 117ZM174.5 108H177.5V102.87L173.029 105.385L174.5 108ZM174.5 163V166H177.5V163H174.5ZM158.5 163H155.5V166H158.5V163ZM158.5 117L157.029 114.385L155.5 115.245V117H158.5ZM121.5 97.5V94.5C119.843 94.5 118.5 95.8431 118.5 97.5H121.5ZM121.5 98.5H118.5C118.5 100.157 119.843 101.5 121.5 101.5V98.5ZM122.5 98.5V101.5C124.157 101.5 125.5 100.157 125.5 98.5H122.5ZM122.5 97.5H125.5C125.5 95.8431 124.157 94.5 122.5 94.5V97.5ZM0 3V176.5H6V3H0ZM3 179.5H79.5V173.5H3V179.5ZM82.5 176.5V3H76.5V176.5H82.5ZM79.5 0H3V6H79.5V0ZM19.5 162.5H62V156.5H19.5V162.5ZM62 17H19.5V23H62V17ZM16.5 20V41.5H22.5V20H16.5ZM65 41.5V20H59V41.5H65ZM19.5 44.5H62V38.5H19.5V44.5ZM16.5 41.5V66.5H22.5V41.5H16.5ZM65 66.5V41.5H59V66.5H65ZM19.5 69.5H62V63.5H19.5V69.5ZM16.5 66.5V89.5H22.5V66.5H16.5ZM65 89.5V66.5H59V89.5H65ZM19.5 92.5H62V86.5H19.5V92.5ZM16.5 89.5V102.5H22.5V89.5H16.5ZM16.5 102.5V113.5H22.5V102.5H16.5ZM65 113.5V89.5H59V113.5H65ZM19.5 116.5H62V110.5H19.5V116.5ZM16.5 113.5V136.5H22.5V113.5H16.5ZM16.5 136.5V159.5H22.5V136.5H16.5ZM65 159.5V136.5H59V159.5H65ZM65 136.5V113.5H59V136.5H65ZM19.5 139.5H62V133.5H19.5V139.5ZM13.5 105.5H19.5V99.5H13.5V105.5ZM19.5 105.5H25.5V99.5H19.5V105.5ZM108.5 3.5V177H114.5V3.5H108.5ZM111.5 180H188V174H111.5V180ZM191 177V3.5H185V177H191ZM188 0.5H111.5V6.5H188V0.5ZM148.886 13.7146L123.886 23.7146L126.114 29.2854L151.114 19.2854L148.886 13.7146ZM122 26.5V88H128V26.5H122ZM123.984 90.8227L148.984 99.8227L151.016 94.1773L126.016 85.1773L123.984 90.8227ZM148.386 19.2854L173.386 29.2854L175.614 23.7146L150.614 13.7146L148.386 19.2854ZM171.5 26.5V88H177.5V26.5H171.5ZM173.484 85.1773L148.484 94.1773L150.516 99.8227L175.516 90.8227L173.484 85.1773ZM122.5 108V163H128.5V108H122.5ZM125.5 166H141.5V160H125.5V166ZM144.5 163V117H138.5V163H144.5ZM124.029 110.615L140.029 119.615L142.971 114.385L126.971 105.385L124.029 110.615ZM171.5 108V163H177.5V108H171.5ZM174.5 160H158.5V166H174.5V160ZM161.5 163V117H155.5V163H161.5ZM173.029 105.385L157.029 114.385L159.971 119.615L175.971 110.615L173.029 105.385ZM118.5 97.5V98.5H124.5V97.5H118.5ZM121.5 101.5H122.5V95.5H121.5V101.5ZM125.5 98.5V97.5H119.5V98.5H125.5ZM122.5 94.5H121.5V100.5H122.5V94.5Z" fill="#00a64c"/>
</svg>
