<svg version="1.0" xmlns="http://www.w3.org/2000/svg" width="1062.667" height="1062.667" viewBox="0 0 797 797"><path d="M392.5.6c-.5.2-5.9 1.5-12 2.9-6 1.4-11.7 2.8-12.5 3-1.7.4-10.8 2.5-13 3-.8.2-6.3 1.5-12.3 2.9-5.9 1.4-11.8 2.8-13 3-1.2.3-9.2 2.1-17.7 4.1-8.5 2-16.4 3.8-17.5 4.1-1.1.2-4.7 1.1-8 1.9-3.3.9-7.3 1.8-9 2.1-1.6.3-5.7 1.2-9 2.1-6.8 1.7-6.6 1.7-12 2.8-2.2.5-4.2 1-4.5 1-.3.1-1.6.5-3 .8-1.4.4-6.5 1.6-11.5 2.7-9.9 2.3-14.5 3.4-34 8-7.1 1.8-13.9 3.4-15 3.6-1.1.2-3.6.7-5.5 1.1-4.6.9-5 1-5.2 1.3-.3.2-1.5.4-5.8 1.3-1.4.3-4.7 1.1-7.5 1.7-2.7.6-5.7 1.3-6.5 1.5-.8.2-3.5.8-6 1.4-2.5.7-5.6 1.4-7 1.7-1.4.3-4.3 1-6.5 1.6-2.2.5-4.7 1.1-5.5 1.3-.8.2-4.8 1.1-8.9 2-4 .9-8 1.9-9 2-.9.2-1.7.4-1.8.5-.4.3-1.1.5-8.1 2L99 69.3v336.3c0 185 .3 336.4.8 336.5.4 0 1.6.2 2.7.4s3.8.7 6 1c2.2.3 5.2.7 6.7 1 1.6.3 4 .7 5.5.9 6.7.9 16.7 2.7 17.4 3.2.5.3 2.6.6 4.6.8 2.1.2 4.9.6 6.3 1 1.4.3 3.6.8 5 1 1.4.3 3.6.7 5 1 1.3.3 4.2.8 6.5 1.1 2.2.3 4.7.8 5.5 1 .8.2 2.9.7 4.5.9 1.7.3 5.3 1 8 1.6 2.8.6 6.4 1.2 8 1.5 11.6 1.9 14 2.3 14 2.5 0 .2 1.8.5 8.5 1.6 2.5.4 4.7.8 5 .9 2.1.5 7.1 1.5 10 1.9 1.9.3 6 1 9 1.6 3 .6 6.6 1.3 8 1.6 1.4.2 3.6.7 5 .9 1.4.3 3.9.8 5.5 1 1.7.3 5 1 7.5 1.5s5.9 1.2 7.5 1.4c1.7.3 5.3.9 8 1.4 2.8.6 9.1 1.7 14 2.6 5 .9 12.2 2.3 16 3.1 3.9.8 8.4 1.6 10 1.9 1.7.3 4.6.8 6.5 1.2 1.9.4 4.6.8 6 1 1.4.1 2.5.3 2.5.4 0 .3 7.2 1.7 12.5 2.6 1.9.3 6.9 1.2 11 2s8.6 1.6 10 1.8c1.4.3 2.5.5 2.5.6 0 .1.9.3 2 .4 1.1.1 3.6.5 5.5.9s4.9.9 6.5 1.2c1.7.2 4.1.8 5.5 1.2 1.4.4 18.8.9 38.8 1l36.2.4V0l-35.7.1c-19.7 0-36.2.2-36.8.5zm6 398.9c0 291.4-.2 331-1.5 330.8-.8-.2-11.2-2.1-23-4.4-11.8-2.2-22.8-4.3-24.5-4.5-1.6-.3-4.1-.7-5.5-1-1.4-.3-3.6-.8-5-1-4.8-.9-29.5-5.5-32.5-6.1-1.6-.4-3.7-.7-4.5-.9-4-.5-9.7-1.6-11-1.9-.8-.3-3.2-.7-5.4-1.1-2.1-.3-4.7-.8-5.7-1-1.1-.2-2.7-.6-3.8-.8-1-.2-3.4-.7-5.2-1-1.9-.3-4.4-.8-5.5-1-1.2-.2-3.7-.7-5.5-1-1.9-.3-4.5-.8-5.9-1.1-1.4-.3-5-.9-8-1.5s-6.6-1.2-8-1.5c-1.4-.3-5-.9-8-1.5-7.3-1.3-9.5-1.8-15.9-3.1-3-.6-6.4-1.2-7.5-1.4-1.9-.2-10.2-1.7-16.6-3-1.4-.3-6.1-1.2-10.5-2-10.2-1.8-12.3-2.3-13.3-2.8-.5-.4-.9-559-.3-564.4.1-1.1 1.8-1.7 8.6-2.9 1.7-.3 7.5-1.6 13-2.9 20.2-4.9 30-7.1 34-7.9 1.1-.2 4-.9 6.5-1.6 2.5-.7 5.6-1.4 7-1.6 1.4-.3 3.3-.7 4.2-1 .9-.3 2.5-.7 3.5-.9 1.8-.4 10.4-2.4 28.3-6.5 5.2-1.2 10.3-2.3 11.3-2.5 1-.2 2.6-.6 3.5-.9.9-.3 2.8-.7 4.2-1 2.4-.5 18.3-4.2 22.5-5.2 1.1-.3 3.1-.7 4.5-1 1.4-.3 4.3-1 6.5-1.6 2.2-.5 4.9-1.2 6-1.4 3.1-.6 4.6-1 26-5.9 11-2.6 20.9-4.9 22-5.1 4.2-.7 13.6-3.2 14.1-3.6.2-.3 1.9-.5 3.7-.4l3.2.1v331z"/><path d="M339 366.2c-10.5 3-18 16-18.4 31.7-.3 11.2 3.5 21.1 10.6 28 4.2 4.2 6.5 5.3 11.5 5.4 5.8.1 7-.4 11.2-3.9 7.8-6.7 11.6-18 10.9-31.7-1.2-20.2-12.6-33.3-25.8-29.5zM531.9 68.5c-.4 5.8-.4 62.2-.1 63.2.3 1 11.2 1.3 50.1 1.3h49.6v265.5c0 235.3-.2 265.5-1.5 265.6-.8 0-23.3.1-50 .1l-48.5.1.1 32.6c.1 17.9.2 32.8.3 33.1 0 .3 37.3.6 82.9.5h82.7v-664h-82.7c-82.3 0-82.8 0-82.9 2z"/></svg>