<svg width="100" height="101" viewBox="0 0 100 101" fill="none" xmlns="http://www.w3.org/2000/svg">
<ellipse cx="85.0572" cy="55.5755" rx="2.29885" ry="2.47934" fill="white"/>
<mask id="path-2-inside-1" fill="white">
<rect x="38.6973" y="0.203613" width="58.2375" height="97.1075" rx="2"/>
</mask>
<rect x="38.6973" y="0.203613" width="58.2375" height="97.1075" rx="2" stroke="white" stroke-width="8" stroke-linecap="round" stroke-linejoin="bevel" mask="url(#path-2-inside-1)"/>
<rect y="94.8318" width="100" height="5.3719" fill="white"/>
<mask id="path-4-inside-2" fill="white">
<path fill-rule="evenodd" clip-rule="evenodd" d="M21.9996 13.681C21.9999 13.6422 22 13.6033 22 13.5643C22 7.17752 18.4183 2 14 2C9.58172 2 6 7.17752 6 13.5643C6 13.6033 6.00013 13.6422 6.0004 13.681H21.9996Z"/>
</mask>
<path d="M21.9996 13.681V15.681H23.986L23.9996 13.6947L21.9996 13.681ZM6.0004 13.681L4.00045 13.6947L4.01403 15.681H6.0004V13.681ZM20 13.5643C20 13.5987 19.9999 13.6331 19.9996 13.6673L23.9996 13.6947C23.9999 13.6513 24 13.6078 24 13.5643H20ZM14 4C15.3666 4 16.8179 4.79866 18.0121 6.52495C19.2008 8.24328 20 10.7259 20 13.5643H24C24 10.0159 23.0084 6.71639 21.3016 4.24927C19.6004 1.7901 17.0517 0 14 0V4ZM8 13.5643C8 10.7259 8.79922 8.24328 9.98793 6.52495C11.1821 4.79866 12.6334 4 14 4V0C10.9483 0 8.39957 1.7901 6.69836 4.24927C4.99165 6.71639 4 10.0159 4 13.5643H8ZM8.00035 13.6673C8.00012 13.633 8 13.5987 8 13.5643H4C4 13.6078 4.00015 13.6513 4.00045 13.6947L8.00035 13.6673ZM6.0004 15.681H21.9996V11.681H6.0004V15.681Z" fill="white" mask="url(#path-4-inside-2)"/>
<mask id="path-6-inside-3" fill="white">
<path fill-rule="evenodd" clip-rule="evenodd" d="M11.5 11.4352C6.80558 11.4352 3 15.2408 3 19.9352C3 24.6296 6.80558 28.4352 11.5 28.4352H16.5C21.1944 28.4352 25 24.6296 25 19.9352C25 15.2408 21.1944 11.4352 16.5 11.4352H11.5ZM16.5181 17.3092C16.5181 18.3178 16.0193 19.2051 15.2646 19.718L15.2536 19.7255V19.7255V22.3324V25.3324H12.2646V22.3324V19.7255L12.2645 19.7255L12.2536 19.718C11.4988 19.2052 11 18.3179 11 17.3092C11 15.7219 12.2353 14.4352 13.7591 14.4352C15.2828 14.4352 16.5181 15.7219 16.5181 17.3092Z"/>
</mask>
<path fill-rule="evenodd" clip-rule="evenodd" d="M11.5 11.4352C6.80558 11.4352 3 15.2408 3 19.9352C3 24.6296 6.80558 28.4352 11.5 28.4352H16.5C21.1944 28.4352 25 24.6296 25 19.9352C25 15.2408 21.1944 11.4352 16.5 11.4352H11.5ZM16.5181 17.3092C16.5181 18.3178 16.0193 19.2051 15.2646 19.718L15.2536 19.7255V19.7255V22.3324V25.3324H12.2646V22.3324V19.7255L12.2645 19.7255L12.2536 19.718C11.4988 19.2052 11 18.3179 11 17.3092C11 15.7219 12.2353 14.4352 13.7591 14.4352C15.2828 14.4352 16.5181 15.7219 16.5181 17.3092Z" fill="white"/>
<path d="M15.2646 19.718L15.8247 20.5464L15.8267 20.5451L15.2646 19.718ZM15.2536 19.7255L14.6935 18.897C14.4184 19.083 14.2536 19.3934 14.2536 19.7255H15.2536ZM15.2536 25.3324V26.3324C15.8058 26.3324 16.2536 25.8847 16.2536 25.3324H15.2536ZM12.2646 25.3324H11.2646C11.2646 25.8847 11.7123 26.3324 12.2646 26.3324V25.3324ZM12.2646 19.7255H13.2646C13.2646 19.3911 13.0975 19.0789 12.8193 18.8934L12.2646 19.7255ZM12.2645 19.7255L11.7044 20.5539L11.7098 20.5575L12.2645 19.7255ZM12.2536 19.718L11.6915 20.5451L11.6935 20.5465L12.2536 19.718ZM4 19.9352C4 15.793 7.35786 12.4352 11.5 12.4352V10.4352C6.25329 10.4352 2 14.6885 2 19.9352H4ZM11.5 27.4352C7.35786 27.4352 4 24.0773 4 19.9352H2C2 25.1819 6.25329 29.4352 11.5 29.4352V27.4352ZM16.5 27.4352H11.5V29.4352H16.5V27.4352ZM24 19.9352C24 24.0773 20.6421 27.4352 16.5 27.4352V29.4352C21.7467 29.4352 26 25.1819 26 19.9352H24ZM16.5 12.4352C20.6421 12.4352 24 15.793 24 19.9352H26C26 14.6885 21.7467 10.4352 16.5 10.4352V12.4352ZM11.5 12.4352H16.5V10.4352H11.5V12.4352ZM15.8267 20.5451C16.8532 19.8475 17.5181 18.6516 17.5181 17.3092H15.5181C15.5181 17.9841 15.1854 18.5628 14.7025 18.8909L15.8267 20.5451ZM15.8136 20.5539L15.8247 20.5464L14.7045 18.8896L14.6935 18.897L15.8136 20.5539ZM16.2536 19.7255V19.7255H14.2536V19.7255H16.2536ZM16.2536 22.3324V19.7255H14.2536V22.3324H16.2536ZM16.2536 25.3324V22.3324H14.2536V25.3324H16.2536ZM12.2646 26.3324H15.2536V24.3324H12.2646V26.3324ZM11.2646 22.3324V25.3324H13.2646V22.3324H11.2646ZM11.2646 19.7255V22.3324H13.2646V19.7255H11.2646ZM11.7098 20.5575L11.7099 20.5575L12.8193 18.8934L12.8192 18.8934L11.7098 20.5575ZM11.6935 20.5465L11.7044 20.5539L12.8246 18.897L12.8137 18.8896L11.6935 20.5465ZM10 17.3092C10 18.6516 10.6649 19.8476 11.6915 20.5451L12.8156 18.8909C12.3327 18.5628 12 17.9841 12 17.3092H10ZM13.7591 13.4352C11.6449 13.4352 10 15.2085 10 17.3092H12C12 16.2353 12.8256 15.4352 13.7591 15.4352V13.4352ZM17.5181 17.3092C17.5181 15.2085 15.8732 13.4352 13.7591 13.4352V15.4352C14.6925 15.4352 15.5181 16.2353 15.5181 17.3092H17.5181Z" fill="white" mask="url(#path-6-inside-3)"/>
</svg>
