<svg width="100" height="100" viewBox="0 0 100 100" fill="none" xmlns="http://www.w3.org/2000/svg">
<mask id="path-1-inside-1" fill="white">
<path fill-rule="evenodd" clip-rule="evenodd" d="M90.3084 0H100V99.9999H90.3084V9.36182H9.69161V100H0V9.36182V0.000134722H9.69161H90.3084V0Z"/>
</mask>
<path d="M100 0H104V-4H100V0ZM90.3084 0V-4H86.3084V0H90.3084ZM100 99.9999V104H104V99.9999H100ZM90.3084 99.9999H86.3084V104H90.3084V99.9999ZM90.3084 9.36182H94.3084V5.36182H90.3084V9.36182ZM9.69161 9.36182V5.36182H5.69161V9.36182H9.69161ZM9.69161 100V104H13.6916V100H9.69161ZM0 100H-4V104H0V100ZM0 0.000134722V-3.99987H-4V0.000134722H0ZM90.3084 0.000134722V4.00013H94.3084V0.000134722H90.3084ZM100 -4H90.3084V4H100V-4ZM104 99.9999V0H96V99.9999H104ZM90.3084 104H100V95.9999H90.3084V104ZM86.3084 9.36182V99.9999H94.3084V9.36182H86.3084ZM90.3084 5.36182H9.69161V13.3618H90.3084V5.36182ZM13.6916 100V9.36182H5.69161V100H13.6916ZM0 104H9.69161V96H0V104ZM-4 9.36182V100H4V9.36182H-4ZM4 9.36182V0.000134722H-4V9.36182H4ZM0 4.00013H9.69161V-3.99987H0V4.00013ZM9.69161 4.00013H90.3084V-3.99987H9.69161V4.00013ZM86.3084 0V0.000134722H94.3084V0H86.3084Z" fill="white" mask="url(#path-1-inside-1)"/>
<rect x="8.63196" y="7.15247" width="12.6916" height="84.2765" rx="6.3458" stroke="white" stroke-width="3" stroke-linejoin="round"/>
<rect x="65.901" y="7.15247" width="12.6916" height="84.2765" rx="6.3458" stroke="white" stroke-width="3" stroke-linejoin="round"/>
<rect x="21.4075" y="7.15247" width="12.6916" height="84.2765" rx="6.3458" stroke="white" stroke-width="3" stroke-linejoin="round"/>
<rect x="78.6761" y="7.15247" width="12.6916" height="84.2765" rx="6.3458" stroke="white" stroke-width="3" stroke-linejoin="round"/>
<rect x="19.6771" y="8.93616" width="2.93685" height="2.12766" fill="white"/>
<rect x="76.9457" y="8.93616" width="2.93685" height="2.12766" fill="white"/>
</svg>
