<svg width="100" height="100" viewBox="0 0 100 100" fill="none" xmlns="http://www.w3.org/2000/svg">
<mask id="path-1-inside-1" fill="white">
<rect y="4.85828" width="58.6873" height="95.1416" rx="2"/>
</mask>
<rect y="4.85828" width="58.6873" height="95.1416" rx="2" stroke="white" stroke-width="8" stroke-linecap="round" stroke-linejoin="bevel" mask="url(#path-1-inside-1)"/>
<mask id="path-2-inside-2" fill="white">
<path fill-rule="evenodd" clip-rule="evenodd" d="M99.9998 0H32.8184V6.74603H93.0498V99.9999H99.9996V6.74603H99.9998V0Z"/>
</mask>
<path d="M32.8184 0V-3C31.1615 -3 29.8184 -1.65685 29.8184 0L32.8184 0ZM99.9998 0H103C103 -1.65685 101.657 -3 99.9998 -3V0ZM32.8184 6.74603H29.8184C29.8184 8.40288 31.1615 9.74603 32.8184 9.74603V6.74603ZM93.0498 6.74603H96.0498C96.0498 5.08917 94.7067 3.74603 93.0498 3.74603V6.74603ZM93.0498 99.9999H90.0498C90.0498 101.657 91.393 103 93.0498 103V99.9999ZM99.9996 99.9999V103C101.656 103 103 101.657 103 99.9999H99.9996ZM99.9996 6.74603V3.74603C98.3428 3.74603 96.9996 5.08917 96.9996 6.74603L99.9996 6.74603ZM99.9998 6.74603V9.74603C101.657 9.74603 103 8.40288 103 6.74603L99.9998 6.74603ZM32.8184 3H99.9998V-3H32.8184V3ZM35.8184 6.74603V0H29.8184V6.74603H35.8184ZM93.0498 3.74603H32.8184V9.74603H93.0498V3.74603ZM96.0498 99.9999V6.74603H90.0498V99.9999H96.0498ZM99.9996 96.9999H93.0498V103H99.9996V96.9999ZM96.9996 6.74603V99.9999H103V6.74603H96.9996ZM99.9998 3.74603H99.9996V9.74603H99.9998V3.74603ZM96.9998 0V6.74603H103V0H96.9998Z" fill="white" mask="url(#path-2-inside-2)"/>
<ellipse cx="47.4899" cy="55.0606" rx="2.3166" ry="2.42915" fill="white"/>
<rect x="53.2817" y="97.5708" width="46.7181" height="2.42915" fill="white"/>
</svg>
