<svg width="43" height="104" viewBox="0 0 43 104" fill="none" xmlns="http://www.w3.org/2000/svg">
<path d="M41 36.7826V2H2V102H41V48.3768" stroke="white" stroke-width="3" stroke-linecap="round" stroke-linejoin="round"/>
<path d="M41 36V52.5" stroke="white" stroke-width="3"/>
<path fill-rule="evenodd" clip-rule="evenodd" d="M21.5218 65C28.433 65 34.0357 59.4036 34.0357 52.5C34.0357 45.5964 28.433 40 21.5218 40C14.6105 40 9.00781 45.5964 9.00781 52.5C9.00781 59.4036 14.6105 65 21.5218 65ZM21.5218 46C23.2732 46 24.7245 47.3371 24.9843 49.0837C25.0115 49.267 25.0257 49.4547 25.0257 49.6458C25.0257 50.9315 24.386 52.0618 23.4198 52.7109V52.7111V53.8238V59.8238H19.6239V53.8238V52.7111L19.6237 52.7109C18.6575 52.0618 18.0179 50.9315 18.0179 49.6458C18.0179 49.4548 18.032 49.2671 18.0592 49.084C18.3189 47.3372 19.7702 46 21.5218 46Z" fill="white"/>
</svg>
