<svg width="53" height="94" fill="none" xmlns="http://www.w3.org/2000/svg"><path d="M26.078 0l-.223.074-19 4.453L5 4.973v48.094l1.93.297 19 3.562.222.074h4.973V0h-5.047zm9.797 4.75V9.5H43v38h-7.125v4.75H47.75V4.75H35.875zm-9.5.074V52.25L9.75 49.132V8.685l16.625-3.861zm-3.933 21.301c-.872 0-1.634 1.069-1.634 2.375s.76 2.375 1.634 2.375c.872 0 1.558-1.069 1.558-2.375s-.689-2.375-1.558-2.375z" fill="#00A64C"/><path d="M1.122 78.63l-.213-3.758h.916c.249-.288.486-.66.71-1.113.23-.454.42-1.016.571-1.685.152-.674.237-1.482.257-2.424l.176-3.186-1.128-.198v-.93h8.803v.93l-1.194.205v8.401h1.465l-.146 3.743h-1.296V76h-7.69v2.63H1.121zm2.3-3.758h5.156v-8.4h-3.59L4.82 69.65c-.044 1.162-.19 2.185-.44 3.069-.248.884-.568 1.601-.959 2.153zM12.598 76v-.923l1.194-.205v-8.4l-1.194-.206v-.93h4.6c1.112 0 1.982.242 2.607.725.63.479.944 1.199.944 2.16 0 .474-.15.9-.454 1.275a2.652 2.652 0 01-1.186.828c.64.136 1.145.451 1.516.945.371.493.557 1.066.557 1.72 0 .977-.318 1.724-.953 2.242-.634.513-1.494.769-2.578.769H12.6zm2.636-6.13h2.337c.517 0 .935-.15 1.252-.447.322-.303.484-.713.484-1.23 0-.577-.181-1.007-.542-1.29-.362-.288-.884-.432-1.568-.432h-1.963v3.399zm0 5.002h2.417c.66 0 1.17-.161 1.531-.483.366-.328.55-.789.55-1.385 0-.625-.154-1.115-.462-1.472-.303-.356-.769-.534-1.399-.534h-2.637v3.874zM22.457 76v-.923l1.194-.205v-8.4l-1.194-.206v-.93h7.895v2.563h-1.157l-.16-1.45h-3.941v3.472h3.933v1.135h-3.933v3.86h4.175l.16-1.472h1.15V76h-8.122zm9.566 0v-.923l1.193-.205v-8.4l-1.194-.206v-.93h4.9c1.138 0 2.022.293 2.652.879.635.586.952 1.357.952 2.314 0 .967-.318 1.741-.952 2.322-.63.581-1.514.872-2.652.872H34.66v3.15l1.194.204V76h-3.83zm2.636-5.405h2.263c.723 0 1.263-.193 1.619-.579.361-.39.542-.881.542-1.472 0-.59-.18-1.084-.542-1.48-.356-.395-.896-.593-1.619-.593H34.66v4.124zM41.53 76v-.923l1.194-.205v-8.4l-1.194-.206v-.93h3.83v.93l-1.193.205v6.145l.044.015 5.127-5.486v-.674l-1.194-.205v-.93h3.83v.93l-1.193.205v8.401l1.194.205V76h-3.83v-.923l1.193-.205v-5.947l-.044-.015-5.127 5.493v.47l1.194.204V76h-3.83zM.836 92v-.923l.79-.11 3.729-9.631h1.238l3.662 9.631.784.11V92H7.977v-.923l.806-.139-.703-1.963H3.81l-.726 1.963.806.14V92H.836zm3.42-4.233H7.64L6.073 83.43l-.088-.242H5.94l-.088.242-1.597 4.336zM12.108 92v-1.128h.293c.44 0 .789-.144 1.047-.432.264-.293.462-.77.593-1.428.132-.66.223-1.543.271-2.652l.176-3.896-1.142-.198v-.93h8.899v.93l-1.194.205v8.401l1.194.205V92h-3.83v-.923l1.193-.205v-8.4h-3.684l-.176 3.888c-.063 1.333-.205 2.415-.425 3.245-.215.83-.55 1.438-1.003 1.824-.454.38-1.065.571-1.831.571h-.381zm13.88 0v-.923l1.193-.205v-8.445h-2.417l-.212 1.48h-1.084v-2.571h8.862v2.57h-1.07l-.219-1.479h-2.417v8.445l1.194.205V92h-3.83zm5.83 0v-.923l.79-.11 3.728-9.631h1.238l3.662 9.631.784.11V92h-3.062v-.923l.806-.139-.703-1.963h-4.27l-.725 1.963.806.14V92h-3.055zm3.42-4.233h3.384l-1.568-4.336-.088-.242h-.044l-.087.242-1.597 4.336zm16.867 3.31V92h-3.837v-.923l1.193-.205v-3.047h-2.16l-1.604 2.952c-.493.854-1.104 1.282-1.831 1.282-.205 0-.376-.025-.513-.074a1.51 1.51 0 01-.403-.234l.205-1.018c.161.049.31.073.447.073.2 0 .374-.058.52-.176a1.9 1.9 0 00.432-.505l1.487-2.57.022-.037c-.762-.25-1.343-.623-1.743-1.121-.4-.503-.6-1.12-.6-1.853 0-1.016.334-1.804 1.003-2.366.669-.561 1.592-.842 2.768-.842h4.614v.93l-1.193.205v8.401l1.194.205zm-4.614-8.606c-.761 0-1.34.183-1.736.55-.395.366-.593.869-.593 1.508 0 .64.2 1.16.6 1.56.401.396.975.594 1.722.594h1.977V82.47h-1.97z" fill="#000"/></svg>