<svg width="19" height="25" viewBox="0 0 19 25" fill="none" xmlns="http://www.w3.org/2000/svg">
<path d="M9.12077 5.25797C10.0513 5.25797 10.9437 5.60435 11.6017 6.22091C12.2596 6.83748 12.6293 7.67372 12.6293 8.54568C12.6293 9.41763 12.2596 10.2539 11.6017 10.8704C10.9437 11.487 10.0513 11.8334 9.12077 11.8334C8.19025 11.8334 7.29784 11.487 6.63986 10.8704C5.98189 10.2539 5.61224 9.41763 5.61224 8.54568C5.61224 7.67372 5.98189 6.83748 6.63986 6.22091C7.29784 5.60435 8.19025 5.25797 9.12077 5.25797ZM9.12077 6.57305C8.56246 6.57305 8.02701 6.78088 7.63223 7.15082C7.23744 7.52076 7.01565 8.0225 7.01565 8.54568C7.01565 9.06885 7.23744 9.57059 7.63223 9.94053C8.02701 10.3105 8.56246 10.5183 9.12077 10.5183C9.67908 10.5183 10.2145 10.3105 10.6093 9.94053C11.0041 9.57059 11.2259 9.06885 11.2259 8.54568C11.2259 8.0225 11.0041 7.52076 10.6093 7.15082C10.2145 6.78088 9.67908 6.57305 9.12077 6.57305ZM2.52474 12.3029L9.12077 22.4685L15.7168 12.3029C16.4282 11.2061 16.8153 9.95169 16.8384 8.66841C16.8616 7.38513 16.5199 6.11919 15.8484 5.00053C15.177 3.88186 14.2 2.95076 13.0177 2.30278C11.8354 1.6548 10.4904 1.31328 9.12077 1.31328C7.7511 1.31328 6.4061 1.6548 5.22381 2.30278C4.04152 2.95076 3.06452 3.88186 2.39309 5.00053C1.72166 6.11919 1.37997 7.38513 1.40311 8.66841C1.42624 9.95169 1.81336 11.2061 2.52474 12.3029ZM16.9153 12.9867L9.12077 25L1.32622 12.9867C0.485751 11.6905 0.0284626 10.2081 0.00128622 8.69157C-0.0258901 7.17506 0.378024 5.67908 1.17158 4.35715C1.96513 3.03523 3.11975 1.93496 4.51694 1.16926C5.91413 0.403557 7.50358 0 9.12217 0C10.7408 0 12.3302 0.403557 13.7274 1.16926C15.1246 1.93496 16.2792 3.03523 17.0728 4.35715C17.8663 5.67908 18.2702 7.17506 18.2431 8.69157C18.2159 10.2081 17.7586 11.6905 16.9181 12.9867H16.9153Z" fill="#999"/>
</svg>
