<svg width="25" height="20" viewBox="0 0 25 20" fill="none" xmlns="http://www.w3.org/2000/svg">
<path d="M3.94737 0H21.0526C22.0995 0 23.1036 0.421427 23.8438 1.17157C24.5841 1.92172 25 2.93913 25 4V16C25 17.0609 24.5841 18.0783 23.8438 18.8284C23.1036 19.5786 22.0995 20 21.0526 20H3.94737C2.90046 20 1.89643 19.5786 1.15616 18.8284C0.415882 18.0783 0 17.0609 0 16V4C0 2.93913 0.415882 1.92172 1.15616 1.17157C1.89643 0.421427 2.90046 0 3.94737 0ZM3.94737 1.33333C3.30526 1.33333 2.71579 1.56667 2.25921 1.95467L12.5 8.69333L22.7408 1.95467C22.2678 1.55255 21.67 1.33251 21.0526 1.33333H3.94737ZM12.5 10.2827L1.49211 3.04C1.37538 3.34623 1.3156 3.67172 1.31579 4V16C1.31579 16.7072 1.59304 17.3855 2.08656 17.8856C2.58008 18.3857 3.24943 18.6667 3.94737 18.6667H21.0526C21.7506 18.6667 22.4199 18.3857 22.9134 17.8856C23.407 17.3855 23.6842 16.7072 23.6842 16V4C23.6842 3.66133 23.6224 3.33733 23.5079 3.04L12.5 10.2813V10.2827Z" fill="#999"/>
</svg>
