<svg width="25" height="25" viewBox="0 0 25 25" fill="none" xmlns="http://www.w3.org/2000/svg">
<path d="M16.3375 0H8.6625C1.6625 0 0 1.6625 0 8.6625V16.3375C0 23.3375 1.6625 25 8.6625 25H16.3375C23.3375 25 25 23.3375 25 16.3375V8.6625C25 1.6625 23.3375 0 16.3375 0ZM20.1875 17.8375H18.3625C17.675 17.8375 17.4625 17.275 16.25 16.0375C15.15 15 14.675 14.85 14.4125 14.85C14.05 14.85 13.9375 14.95 13.9375 15.475V17.1125C13.9375 17.55 13.8 17.825 12.6375 17.825C10.7125 17.825 8.575 16.65 7.075 14.4875C4.8125 11.3125 4.2 8.9125 4.2 8.4375C4.2 8.175 4.2875 7.925 4.8125 7.925H6.65C7.1125 7.925 7.2875 8.125 7.4625 8.625C8.3625 11.25 9.8625 13.5 10.475 13.5C10.7125 13.5 10.8125 13.3875 10.8125 12.8125V10.125C10.75 8.9 10.0875 8.7875 10.0875 8.35C10.0875 8.125 10.2625 7.925 10.55 7.925H13.4125C13.8 7.925 13.9375 8.125 13.9375 8.6V12.2125C13.9375 12.6 14.1 12.7375 14.225 12.7375C14.45 12.7375 14.65 12.6 15.0625 12.175C16.375 10.7125 17.3125 8.45 17.3125 8.45C17.4375 8.1875 17.6375 7.9375 18.125 7.9375H19.9125C20.4625 7.9375 20.5875 8.225 20.4625 8.6125C20.2375 9.675 18.0125 12.8125 18.0375 12.8125C17.8375 13.125 17.7625 13.2625 18.0375 13.625C18.225 13.8875 18.8625 14.4375 19.2875 14.925C20.0625 15.8125 20.6625 16.55 20.825 17.0625C20.9625 17.575 20.7125 17.8375 20.1875 17.8375Z" fill="#999"/>
</svg>
