<svg width="53" height="94" viewBox="0 0 53 94" fill="none" xmlns="http://www.w3.org/2000/svg">
<path d="M26.0781 0L25.8549 0.0736253L6.85488 4.52675L5 4.97325V53.067L6.93088 53.3639L25.9309 56.9264L26.1518 57H31.125V0H26.0781ZM35.875 4.75V9.5H43V47.5H35.875V52.25H47.75V4.75H35.875ZM26.375 4.82363V52.25L9.75 49.1316V8.68538L26.375 4.82363ZM22.442 26.125C21.5704 26.125 20.808 27.1937 20.808 28.5C20.808 29.8063 21.568 30.875 22.442 30.875C23.3136 30.875 24 29.8063 24 28.5C24 27.1937 23.3112 26.125 22.442 26.125Z" fill="#00A64C"/>
<path d="M1.12158 78.6294L0.90918 74.8721H1.82471C2.07373 74.584 2.31055 74.2129 2.53516 73.7588C2.76465 73.3047 2.95508 72.7432 3.10645 72.0742C3.25781 71.4004 3.34326 70.5923 3.36279 69.6499L3.53857 66.4639L2.41064 66.2661V65.3359H11.2144V66.2661L10.0205 66.4712V74.8721H11.4854L11.3389 78.6147H10.0425V76H2.35205V78.6294H1.12158ZM3.42139 74.8721H8.57764V66.4712H4.98877L4.82031 69.6499C4.77637 70.812 4.62988 71.835 4.38086 72.7188C4.13184 73.6025 3.81201 74.3203 3.42139 74.8721ZM12.5986 76V75.0771L13.7925 74.8721V66.4712L12.5986 66.2661V65.3359H17.1982C18.3115 65.3359 19.1807 65.5776 19.8057 66.061C20.4355 66.5396 20.7505 67.2598 20.7505 68.2217C20.7505 68.6953 20.5991 69.1201 20.2964 69.4961C19.9985 69.8672 19.603 70.1431 19.1099 70.3237C19.7495 70.4604 20.2549 70.7754 20.626 71.2686C20.9971 71.7617 21.1826 72.3354 21.1826 72.9897C21.1826 73.9663 20.8652 74.7134 20.2305 75.231C19.5957 75.7437 18.7363 76 17.6523 76H12.5986ZM15.2354 69.8696H17.5718C18.0894 69.8696 18.5068 69.7207 18.8242 69.4229C19.1465 69.1201 19.3076 68.71 19.3076 68.1924C19.3076 67.6162 19.127 67.1865 18.7656 66.9033C18.4043 66.6152 17.8818 66.4712 17.1982 66.4712H15.2354V69.8696ZM15.2354 74.8721H17.6523C18.3115 74.8721 18.8218 74.7109 19.1831 74.3887C19.5493 74.0615 19.7324 73.6001 19.7324 73.0044C19.7324 72.3794 19.5786 71.8887 19.271 71.5322C18.9683 71.1758 18.502 70.9976 17.8721 70.9976H15.2354V74.8721ZM22.457 76V75.0771L23.6509 74.8721V66.4712L22.457 66.2661V65.3359H30.3525V67.8994H29.1953L29.0342 66.4492H25.0938V69.9209H29.0269V71.0562H25.0938V74.916H29.2686L29.4297 73.4438H30.5796V76H22.457ZM32.0225 76V75.0771L33.2163 74.8721V66.4712L32.0225 66.2661V65.3359H36.9224C38.0601 65.3359 38.9438 65.6289 39.5737 66.2148C40.2085 66.8008 40.5259 67.5723 40.5259 68.5293C40.5259 69.4961 40.2085 70.27 39.5737 70.8511C38.9438 71.4321 38.0601 71.7227 36.9224 71.7227H34.6592V74.8721L35.853 75.0771V76H32.0225ZM34.6592 70.5947H36.9224C37.645 70.5947 38.1846 70.4019 38.541 70.0161C38.9023 69.6255 39.083 69.1348 39.083 68.5439C39.083 67.9531 38.9023 67.46 38.541 67.0645C38.1846 66.6689 37.645 66.4712 36.9224 66.4712H34.6592V70.5947ZM41.5293 76V75.0771L42.7231 74.8721V66.4712L41.5293 66.2661V65.3359H45.3599V66.2661L44.166 66.4712V72.6162L44.21 72.6309L49.3369 67.145V66.4712L48.1431 66.2661V65.3359H51.9736V66.2661L50.7798 66.4712V74.8721L51.9736 75.0771V76H48.1431V75.0771L49.3369 74.8721V68.9248L49.293 68.9102L44.166 74.4033V74.8721L45.3599 75.0771V76H41.5293ZM0.835938 92V91.0771L1.62695 90.9673L5.35498 81.3359H6.59277L10.2549 90.9673L11.0386 91.0771V92H7.97705V91.0771L8.78271 90.938L8.07959 88.9751H3.80957L3.08447 90.938L3.89014 91.0771V92H0.835938ZM4.25635 87.7666H7.64014L6.07275 83.4307L5.98486 83.189H5.94092L5.85303 83.4307L4.25635 87.7666ZM12.1079 92V90.8721H12.4009C12.8403 90.8721 13.1895 90.728 13.4482 90.4399C13.7119 90.147 13.9097 89.6709 14.0415 89.0117C14.1733 88.3525 14.2637 87.4688 14.3125 86.3604L14.4883 82.4639L13.3457 82.2661V81.3359H22.2446V82.2661L21.0508 82.4712V90.8721L22.2446 91.0771V92H18.4141V91.0771L19.6079 90.8721V82.4712H15.9238L15.748 86.3604C15.6846 87.6934 15.543 88.7749 15.3232 89.605C15.1084 90.4351 14.7739 91.043 14.3198 91.4287C13.8657 91.8096 13.2554 92 12.4888 92H12.1079ZM25.9873 92V91.0771L27.1812 90.8721V82.4272H24.7642L24.5518 83.9067H23.4678V81.3359H32.3301V83.9067H31.2607L31.041 82.4272H28.624V90.8721L29.8179 91.0771V92H25.9873ZM31.8174 92V91.0771L32.6084 90.9673L36.3364 81.3359H37.5742L41.2363 90.9673L42.02 91.0771V92H38.9585V91.0771L39.7642 90.938L39.061 88.9751H34.791L34.0659 90.938L34.8716 91.0771V92H31.8174ZM35.2378 87.7666H38.6216L37.0542 83.4307L36.9663 83.189H36.9224L36.8345 83.4307L35.2378 87.7666ZM52.1055 91.0771V92H48.2676V91.0771L49.4614 90.8721V87.8252H47.3008L45.6968 90.7769C45.2036 91.6313 44.5933 92.0586 43.8657 92.0586C43.6606 92.0586 43.4897 92.0342 43.353 91.9854C43.2212 91.9365 43.0869 91.8584 42.9502 91.751L43.1553 90.7329C43.3164 90.7817 43.4653 90.8062 43.6021 90.8062C43.8022 90.8062 43.9756 90.7476 44.1221 90.6304C44.2734 90.5132 44.4175 90.3447 44.5542 90.125L46.041 87.5542L46.063 87.5176C45.3013 87.2686 44.7202 86.895 44.3198 86.397C43.9194 85.894 43.7192 85.2764 43.7192 84.5439C43.7192 83.5283 44.0537 82.7397 44.7227 82.1782C45.3916 81.6167 46.3145 81.3359 47.4912 81.3359H52.1055V82.2661L50.9116 82.4712V90.8721L52.1055 91.0771ZM47.4912 82.4712C46.7295 82.4712 46.1509 82.6543 45.7554 83.0205C45.3599 83.3867 45.1621 83.8896 45.1621 84.5293C45.1621 85.1689 45.3623 85.689 45.7627 86.0894C46.1631 86.4849 46.7368 86.6826 47.4839 86.6826H49.4614V82.4712H47.4912Z" fill="black"/>
</svg>
