<svg width="53" height="52" viewBox="0 0 53 52" fill="none" xmlns="http://www.w3.org/2000/svg">
<path d="M41.2643 41.0408C42.7154 41.0408 44.1072 41.617 45.1333 42.6427C46.1595 43.6685 46.7359 45.0596 46.7359 46.5102C46.7359 47.9608 46.1595 49.3519 45.1333 50.3776C44.1072 51.4033 42.7154 51.9796 41.2643 51.9796C39.8131 51.9796 38.4213 51.4033 37.3952 50.3776C36.369 49.3519 35.7926 47.9608 35.7926 46.5102C35.7926 45.0596 36.369 43.6685 37.3952 42.6427C38.4213 41.617 39.8131 41.0408 41.2643 41.0408ZM41.2643 43.7755C40.5387 43.7755 39.8428 44.0636 39.3297 44.5765C38.8166 45.0893 38.5284 45.7849 38.5284 46.5102C38.5284 47.2355 38.8166 47.9311 39.3297 48.4439C39.8428 48.9568 40.5387 49.2449 41.2643 49.2449C41.9898 49.2449 42.6857 48.9568 43.1988 48.4439C43.7119 47.9311 44.0001 47.2355 44.0001 46.5102C44.0001 45.7849 43.7119 45.0893 43.1988 44.5765C42.6857 44.0636 41.9898 43.7755 41.2643 43.7755ZM16.6416 41.0408C18.0928 41.0408 19.4846 41.617 20.5107 42.6427C21.5368 43.6685 22.1133 45.0596 22.1133 46.5102C22.1133 47.9608 21.5368 49.3519 20.5107 50.3776C19.4846 51.4033 18.0928 51.9796 16.6416 51.9796C15.1905 51.9796 13.7987 51.4033 12.7726 50.3776C11.7464 49.3519 11.1699 47.9608 11.1699 46.5102C11.1699 45.0596 11.7464 43.6685 12.7726 42.6427C13.7987 41.617 15.1905 41.0408 16.6416 41.0408ZM16.6416 43.7755C15.916 43.7755 15.2202 44.0636 14.7071 44.5765C14.194 45.0893 13.9058 45.7849 13.9058 46.5102C13.9058 47.2355 14.194 47.9311 14.7071 48.4439C15.2202 48.9568 15.916 49.2449 16.6416 49.2449C17.3672 49.2449 18.0631 48.9568 18.5762 48.4439C19.0892 47.9311 19.3775 47.2355 19.3775 46.5102C19.3775 45.7849 19.0892 45.0893 18.5762 44.5765C18.0631 44.0636 17.3672 43.7755 16.6416 43.7755ZM46.7359 8.22447H9.18099L16.1492 24.6326H38.5284C38.9538 24.6333 39.3735 24.5342 39.7536 24.3432C40.1337 24.1523 40.4637 23.8749 40.7171 23.5333L48.9246 12.5945H48.9274C49.2308 12.188 49.4151 11.7052 49.4598 11.2C49.5045 10.6948 49.4077 10.1871 49.1804 9.73372C48.953 9.28032 48.604 8.89906 48.1723 8.63253C47.7406 8.366 47.2433 8.22472 46.7359 8.22447ZM38.5284 27.3673H16.275L14.1794 31.6335L13.9058 32.8367C13.9058 33.562 14.194 34.2576 14.7071 34.7704C15.2202 35.2833 15.916 35.5714 16.6416 35.5714H46.7359V38.3061H16.6416C15.6889 38.3066 14.7526 38.0584 13.9253 37.5861C13.098 37.1138 12.4084 36.4338 11.9248 35.6133C11.4411 34.7928 11.1802 33.8603 11.1678 32.9081C11.1553 31.9558 11.3918 31.0169 11.8539 30.1841L13.8237 26.1531L3.88712 2.75508H0.226562V0.0203857H5.69825L8.02099 5.48977H46.7359C47.7698 5.48987 48.7824 5.78272 49.6565 6.3344C50.5307 6.88607 51.2306 7.674 51.6752 8.60693C52.1198 9.53985 52.291 10.5796 52.1688 11.6057C52.0465 12.6318 51.636 13.6024 50.9847 14.4049L43.0125 25.0319C42.5084 25.7533 41.8375 26.3424 41.0568 26.749C40.2761 27.1556 39.4087 27.3677 38.5284 27.3673Z" fill="black"/>
</svg>
