<svg width="20" height="20" viewBox="0 0 20 20" fill="none" xmlns="http://www.w3.org/2000/svg">
<path d="M12.0004 6.00016C12.0004 5.82335 11.9301 5.65378 11.8051 5.52876C11.6801 5.40373 11.5105 5.3335 11.3337 5.3335C11.1569 5.3335 10.9873 5.40373 10.8623 5.52876C10.7372 5.65378 10.667 5.82335 10.667 6.00016V8.00016H8.66693C8.49011 8.00016 8.32054 8.0704 8.19551 8.19542C8.07048 8.32045 8.00024 8.49002 8.00024 8.66683C8.00024 8.84364 8.07048 9.01321 8.19551 9.13823C8.32054 9.26326 8.49011 9.3335 8.66693 9.3335H10.667V11.3335C10.667 11.5103 10.7372 11.6799 10.8623 11.8049C10.9873 11.9299 11.1569 12.0002 11.3337 12.0002C11.5105 12.0002 11.6801 11.9299 11.8051 11.8049C11.9301 11.6799 12.0004 11.5103 12.0004 11.3335V9.3335H14.0004C14.1772 9.3335 14.3468 9.26326 14.4718 9.13823C14.5969 9.01321 14.6671 8.84364 14.6671 8.66683C14.6671 8.49002 14.5969 8.32045 14.4718 8.19542C14.3468 8.0704 14.1772 8.00016 14.0004 8.00016H12.0004V6.00016Z" fill="white"/>
<path d="M0.666687 0C0.489871 0 0.320296 0.0702379 0.195268 0.195262C0.0702401 0.320286 0 0.489856 0 0.666667C0 0.843478 0.0702401 1.01305 0.195268 1.13807C0.320296 1.2631 0.489871 1.33333 0.666687 1.33333H2.14673L2.68142 3.476L4.67881 14.1227C4.70741 14.2754 4.78849 14.4134 4.90803 14.5127C5.02758 14.6121 5.17807 14.6665 5.3335 14.6667H6.66687C5.95961 14.6667 5.28131 14.9476 4.7812 15.4477C4.28108 15.9478 4.00012 16.6261 4.00012 17.3333C4.00012 18.0406 4.28108 18.7189 4.7812 19.219C5.28131 19.719 5.95961 20 6.66687 20C7.37414 20 8.05244 19.719 8.55255 19.219C9.05266 18.7189 9.33362 18.0406 9.33362 17.3333C9.33362 16.6261 9.05266 15.9478 8.55255 15.4477C8.05244 14.9476 7.37414 14.6667 6.66687 14.6667H16.0005C15.2932 14.6667 14.6149 14.9476 14.1148 15.4477C13.6147 15.9478 13.3337 16.6261 13.3337 17.3333C13.3337 18.0406 13.6147 18.7189 14.1148 19.219C14.6149 19.719 15.2932 20 16.0005 20C16.7078 20 17.3861 19.719 17.8862 19.219C18.3863 18.7189 18.6672 18.0406 18.6672 17.3333C18.6672 16.6261 18.3863 15.9478 17.8862 15.4477C17.3861 14.9476 16.7078 14.6667 16.0005 14.6667H17.3339C17.4893 14.6665 17.6398 14.6121 17.7593 14.5127C17.8789 14.4134 17.96 14.2754 17.9886 14.1227L19.9886 3.456C20.0066 3.35978 20.0032 3.26078 19.9787 3.16602C19.9541 3.07127 19.909 2.98308 19.8465 2.90774C19.784 2.83239 19.7057 2.77173 19.6171 2.73007C19.5285 2.6884 19.4318 2.66676 19.3339 2.66667H3.85345L3.31344 0.505333C3.27745 0.361045 3.19425 0.232932 3.07707 0.141366C2.95989 0.0498009 2.81546 4.1082e-05 2.66675 0H0.666687ZM5.88685 13.3333L4.13613 4H18.5312L16.7805 13.3333H5.88685V13.3333ZM8.00025 17.3333C8.00025 17.687 7.85977 18.0261 7.60971 18.2761C7.35965 18.5262 7.02051 18.6667 6.66687 18.6667C6.31324 18.6667 5.97409 18.5262 5.72403 18.2761C5.47398 18.0261 5.3335 17.687 5.3335 17.3333C5.3335 16.9797 5.47398 16.6406 5.72403 16.3905C5.97409 16.1405 6.31324 16 6.66687 16C7.02051 16 7.35965 16.1405 7.60971 16.3905C7.85977 16.6406 8.00025 16.9797 8.00025 17.3333V17.3333ZM17.3339 17.3333C17.3339 17.687 17.1934 18.0261 16.9433 18.2761C16.6933 18.5262 16.3541 18.6667 16.0005 18.6667C15.6469 18.6667 15.3077 18.5262 15.0577 18.2761C14.8076 18.0261 14.6671 17.687 14.6671 17.3333C14.6671 16.9797 14.8076 16.6406 15.0577 16.3905C15.3077 16.1405 15.6469 16 16.0005 16C16.3541 16 16.6933 16.1405 16.9433 16.3905C17.1934 16.6406 17.3339 16.9797 17.3339 17.3333V17.3333Z" fill="white"/>
</svg>
