<svg width="20" height="20" viewBox="0 0 20 20" fill="none" xmlns="http://www.w3.org/2000/svg">
<path d="M18.5714 0H1.42857C0.639593 0 0 0.688793 0 1.53846V2.30769C0 3.15736 0.639593 3.84615 1.42857 3.84615H18.5714C19.3604 3.84615 20 3.15736 20 2.30769V1.53846C20 0.688793 19.3604 0 18.5714 0Z" fill="#333333"/>
<path d="M1.89496 5.38461C1.84477 5.38432 1.79509 5.39543 1.74915 5.4172C1.70322 5.43897 1.66206 5.47093 1.62836 5.51099C1.59466 5.55104 1.56918 5.5983 1.55358 5.64967C1.53798 5.70104 1.53261 5.75538 1.53782 5.80913L2.71237 17.9514C2.71213 17.955 2.71213 17.9585 2.71237 17.962C2.77374 18.5236 3.02446 19.0414 3.41693 19.4171C3.80939 19.7928 4.31629 20.0002 4.84139 20H15.1579C15.6829 20 16.1895 19.7925 16.5818 19.4168C16.9741 19.0411 17.2247 18.5235 17.286 17.962V17.9519L18.4588 5.80913C18.464 5.75538 18.4586 5.70104 18.443 5.64967C18.4274 5.5983 18.402 5.55104 18.3683 5.51099C18.3346 5.47093 18.2934 5.43897 18.2475 5.4172C18.2015 5.39543 18.1518 5.38432 18.1017 5.38461H1.89496ZM13.0048 14.0716C13.0727 14.1427 13.1268 14.2276 13.164 14.3213C13.2011 14.4151 13.2206 14.5159 13.2213 14.6179C13.222 14.7198 13.2038 14.8209 13.1679 14.9153C13.1319 15.0096 13.079 15.0953 13.012 15.1674C12.945 15.2395 12.8654 15.2965 12.7778 15.3351C12.6902 15.3738 12.5963 15.3933 12.5016 15.3925C12.407 15.3918 12.3134 15.3707 12.2263 15.3307C12.1393 15.2906 12.0605 15.2323 11.9945 15.1591L9.99987 13.0111L8.00478 15.1591C7.87021 15.2999 7.68959 15.3781 7.50196 15.3766C7.31434 15.3752 7.13477 15.2943 7.00206 15.1515C6.86936 15.0086 6.79417 14.8153 6.79276 14.6132C6.79135 14.4112 6.86382 14.2166 6.99451 14.0716L8.9896 11.9231L6.99451 9.77452C6.86382 9.62953 6.79135 9.43499 6.79276 9.23293C6.79417 9.03087 6.86936 8.83752 7.00206 8.69467C7.13477 8.55182 7.31434 8.47094 7.50196 8.46951C7.68959 8.46808 7.87021 8.54621 8.00478 8.68702L9.99987 10.8351L11.9945 8.68702C12.1291 8.54621 12.3097 8.46808 12.4973 8.46951C12.685 8.47094 12.8645 8.55182 12.9972 8.69467C13.1299 8.83752 13.2051 9.03087 13.2065 9.23293C13.2079 9.43499 13.1355 9.62953 13.0048 9.77452L11.0097 11.9231L13.0048 14.0716Z" fill="#333333"/>
</svg>
