<svg width="13" height="13" viewBox="0 0 13 13" fill="none" xmlns="http://www.w3.org/2000/svg">
<path d="M12.7645 2.81192L8.21902 0.0619146C8.1519 0.0212977 8.07654 0 7.99993 0C7.92332 0 7.84796 0.0212977 7.78084 0.0619146L3.23532 2.81192C3.16405 2.85508 3.10462 2.91849 3.06323 2.99554C3.02184 3.07258 3 3.16043 3 3.24992C3 3.33941 3.02184 3.42726 3.06323 3.50431C3.10462 3.58135 3.16405 3.64476 3.23532 3.68792L7.54538 6.29543V11.6549L6.16536 10.8199L5.72717 11.6954L7.78084 12.9379C7.84793 12.9787 7.92331 13 7.99993 13C8.07655 13 8.15193 12.9787 8.21902 12.9379L12.7645 10.1879C12.8358 10.1448 12.8953 10.0814 12.9367 10.0043C12.9781 9.9273 13 9.83944 13 9.74994V3.24992C13 3.16042 12.9781 3.07255 12.9367 2.99551C12.8953 2.91847 12.8358 2.85506 12.7645 2.81192ZM7.99993 1.07092L11.6023 3.24992L7.99993 5.42893L4.39761 3.24992L7.99993 1.07092ZM12.0909 9.45444L8.45448 11.6544V6.29493L12.0909 4.09492V9.45444Z" fill="white"/>
<path d="M4 7H0V6H4V7Z" fill="white"/>
<path d="M5 11H1V10H5V11Z" fill="white"/>
<path d="M6 9H2V8H6V9Z" fill="white"/>
</svg>
