<svg width="53" height="48" viewBox="0 0 53 48" fill="none" xmlns="http://www.w3.org/2000/svg">
<path d="M7.06281 23.3223C5.89091 22.1506 4.98317 20.7419 4.40047 19.1909C3.81777 17.6398 3.57357 15.9821 3.68425 14.329C3.79493 12.6758 4.25793 11.0654 5.0422 9.60581C5.82647 8.14617 6.91389 6.87102 8.23154 5.86584C9.54918 4.86067 11.0666 4.14871 12.682 3.77771C14.2975 3.40671 15.9736 3.38524 17.5981 3.71475C19.2225 4.04425 20.7576 4.71711 22.1006 5.6882C23.4436 6.6593 24.5634 7.90619 25.3848 9.34526H28.4435C29.2649 7.90619 30.3846 6.6593 31.7276 5.6882C33.0706 4.71711 34.6058 4.04425 36.2302 3.71475C37.8546 3.38524 39.5308 3.40671 41.1462 3.77771C42.7616 4.14871 44.2791 4.86067 45.5967 5.86584C46.9144 6.87102 48.0018 8.14617 48.7861 9.60581C49.5703 11.0654 50.0333 12.6758 50.144 14.329C50.2547 15.9821 50.0105 17.6398 49.4278 19.1909C48.8451 20.7419 47.9373 22.1506 46.7654 23.3223L26.9141 43.1707L7.06281 23.325V23.3223ZM48.697 25.2639C50.0981 23.8633 51.1941 22.188 51.9161 20.3434C52.6381 18.4988 52.9705 16.5248 52.8923 14.5456C52.814 12.5664 52.327 10.6248 51.4617 8.8429C50.5964 7.06099 49.3716 5.47732 47.8643 4.1915C46.357 2.90568 44.5998 1.94552 42.7033 1.37142C40.8068 0.797315 38.812 0.621683 36.8442 0.855569C34.8765 1.08946 32.9785 1.7278 31.2696 2.73045C29.5606 3.73311 28.0777 5.07838 26.9141 6.68167C25.7505 5.07838 24.2676 3.73311 22.5587 2.73045C20.8497 1.7278 18.9517 1.08946 16.984 0.855569C15.0163 0.621683 13.0215 0.797315 11.1249 1.37142C9.22842 1.94552 7.47126 2.90568 5.96397 4.1915C4.45668 5.47732 3.23187 7.06099 2.36657 8.8429C1.50127 10.6248 1.0142 12.5664 0.935996 14.5456C0.857789 16.5248 1.19013 18.4988 1.91213 20.3434C2.63413 22.188 3.73017 23.8633 5.1313 25.2639L26.9141 47.0348L48.697 25.2667V25.2639Z" fill="black"/>
</svg>
