<svg width="36" height="53" viewBox="0 0 36 53" fill="none" xmlns="http://www.w3.org/2000/svg">
<path d="M17.7803 10.9542C19.5943 10.9542 21.3339 11.6745 22.6166 12.9567C23.8993 14.2388 24.6199 15.9778 24.6199 17.791C24.6199 19.6042 23.8993 21.3431 22.6166 22.6253C21.3339 23.9074 19.5943 24.6277 17.7803 24.6277C15.9663 24.6277 14.2266 23.9074 12.9439 22.6253C11.6613 21.3431 10.9407 19.6042 10.9407 17.791C10.9407 15.9778 11.6613 14.2388 12.9439 12.9567C14.2266 11.6745 15.9663 10.9542 17.7803 10.9542ZM17.7803 13.6889C16.6919 13.6889 15.6481 14.1211 14.8785 14.8904C14.1089 15.6597 13.6765 16.703 13.6765 17.791C13.6765 18.8789 14.1089 19.9223 14.8785 20.6916C15.6481 21.4608 16.6919 21.893 17.7803 21.893C18.8687 21.893 19.9125 21.4608 20.6821 20.6916C21.4517 19.9223 21.8841 18.8789 21.8841 17.791C21.8841 16.703 21.4517 15.6597 20.6821 14.8904C19.9125 14.1211 18.8687 13.6889 17.7803 13.6889ZM4.92179 25.604L17.7803 46.7432L30.6388 25.604C32.0255 23.3233 32.7802 20.7148 32.8253 18.0462C32.8704 15.3776 32.2043 12.7451 30.8954 10.4189C29.5865 8.09265 27.6819 6.15643 25.3771 4.80897C23.0723 3.4615 20.4503 2.75133 17.7803 2.75133C15.1102 2.75133 12.4882 3.4615 10.1834 4.80897C7.87865 6.15643 5.97406 8.09265 4.66515 10.4189C3.35625 12.7451 2.69016 15.3776 2.73526 18.0462C2.78036 20.7148 3.53502 23.3233 4.92179 25.604ZM32.9752 27.026L17.7803 52.0075L2.58538 27.026C0.946936 24.3306 0.0554857 21.2479 0.00250739 18.0943C-0.0504709 14.9408 0.73693 11.8299 2.28391 9.08101C3.83089 6.33209 6.08173 4.0441 8.80545 2.45184C11.5292 0.859576 14.6277 0.0203857 17.783 0.0203857C20.9383 0.0203857 24.0369 0.859576 26.7606 2.45184C29.4843 4.0441 31.7351 6.33209 33.2821 9.08101C34.8291 11.8299 35.6165 14.9408 35.5635 18.0943C35.5106 21.2479 34.6191 24.3306 32.9807 27.026H32.9752Z" fill="black"/>
</svg>
