<svg width="53" height="52" viewBox="0 0 53 52" fill="none" xmlns="http://www.w3.org/2000/svg">
<path d="M26.4246 0.0203857C33.3177 0.0203857 39.9285 2.75751 44.8027 7.62963C49.6769 12.5018 52.4152 19.1098 52.4152 26C52.4152 32.8902 49.6769 39.4982 44.8027 44.3703C39.9285 49.2424 33.3177 51.9796 26.4246 51.9796C19.5315 51.9796 12.9207 49.2424 8.04653 44.3703C3.17236 39.4982 0.434082 32.8902 0.434082 26C0.434082 19.1098 3.17236 12.5018 8.04653 7.62963C12.9207 2.75751 19.5315 0.0203857 26.4246 0.0203857ZM26.4246 2.75508C20.2571 2.75508 14.3422 5.20409 9.98107 9.56335C5.61997 13.9226 3.16993 19.8351 3.16993 26C3.16993 32.1649 5.61997 38.0773 9.98107 42.4366C14.3422 46.7959 20.2571 49.2449 26.4246 49.2449C32.5922 49.2449 38.5071 46.7959 42.8682 42.4366C47.2293 38.0773 49.6793 32.1649 49.6793 26C49.6793 19.8351 47.2293 13.9226 42.8682 9.56335C38.5071 5.20409 32.5922 2.75508 26.4246 2.75508ZM25.0567 13.6939V19.1632H27.7925V13.6939H25.0567ZM25.0567 24.6326V38.3061H27.7925V24.6326H25.0567Z" fill="black"/>
</svg>
