<svg width="56" height="55" viewBox="0 0 56 55" fill="none" xmlns="http://www.w3.org/2000/svg">
<path d="M16.4719 0.0203857H39.4531C48.2078 0.0203857 55.321 7.13059 55.321 15.8816V38.853C55.321 43.0597 53.6492 47.0941 50.6734 50.0686C47.6976 53.0432 43.6615 54.7143 39.4531 54.7143H16.4719C7.71721 54.7143 0.604004 47.6041 0.604004 38.853V15.8816C0.604004 11.675 2.2758 7.64059 5.25161 4.66603C8.22742 1.69147 12.2635 0.0203857 16.4719 0.0203857ZM15.9248 5.48977C13.3126 5.48977 10.8075 6.527 8.96042 8.37328C7.11337 10.2196 6.0757 12.7236 6.0757 15.3347V39.4C6.0757 44.842 10.4804 49.2449 15.9248 49.2449H40.0002C42.6124 49.2449 45.1175 48.2077 46.9646 46.3614C48.8116 44.5151 49.8493 42.011 49.8493 39.4V15.3347C49.8493 9.89263 45.4446 5.48977 40.0002 5.48977H15.9248ZM42.3257 9.59181C43.2327 9.59181 44.1025 9.95196 44.7439 10.593C45.3852 11.2341 45.7455 12.1036 45.7455 13.0102C45.7455 13.9168 45.3852 14.7863 44.7439 15.4273C44.1025 16.0684 43.2327 16.4286 42.3257 16.4286C41.4187 16.4286 40.5489 16.0684 39.9075 15.4273C39.2662 14.7863 38.9059 13.9168 38.9059 13.0102C38.9059 12.1036 39.2662 11.2341 39.9075 10.593C40.5489 9.95196 41.4187 9.59181 42.3257 9.59181ZM27.9625 13.6939C31.5905 13.6939 35.0698 15.1344 37.6352 17.6987C40.2005 20.263 41.6417 23.7409 41.6417 27.3673C41.6417 30.9938 40.2005 34.4717 37.6352 37.0359C35.0698 39.6002 31.5905 41.0408 27.9625 41.0408C24.3345 41.0408 20.8552 39.6002 18.2898 37.0359C15.7245 34.4717 14.2832 30.9938 14.2832 27.3673C14.2832 23.7409 15.7245 20.263 18.2898 17.6987C20.8552 15.1344 24.3345 13.6939 27.9625 13.6939ZM27.9625 19.1632C25.7857 19.1632 23.6981 20.0276 22.1589 21.5662C20.6197 23.1047 19.7549 25.1915 19.7549 27.3673C19.7549 29.5432 20.6197 31.6299 22.1589 33.1685C23.6981 34.7071 25.7857 35.5714 27.9625 35.5714C30.1393 35.5714 32.2269 34.7071 33.7661 33.1685C35.3053 31.6299 36.17 29.5432 36.17 27.3673C36.17 25.1915 35.3053 23.1047 33.7661 21.5662C32.2269 20.0276 30.1393 19.1632 27.9625 19.1632Z" fill="black"/>
</svg>
