<svg width="72" height="58" viewBox="0 0 72 58" fill="none" xmlns="http://www.w3.org/2000/svg">
<path d="M11.3684 0H60.6316C63.6467 0 66.5383 1.22214 68.6703 3.39756C70.8023 5.57298 72 8.52349 72 11.6V46.4C72 49.4765 70.8023 52.427 68.6703 54.6024C66.5383 56.7779 63.6467 58 60.6316 58H11.3684C8.35333 58 5.46173 56.7779 3.32973 54.6024C1.19774 52.427 0 49.4765 0 46.4V11.6C0 8.52349 1.19774 5.57298 3.32973 3.39756C5.46173 1.22214 8.35333 0 11.3684 0ZM11.3684 3.86667C9.51916 3.86667 7.82147 4.54333 6.50653 5.66853L36 25.2107L65.4935 5.66853C64.1314 4.5024 62.4096 3.86429 60.6316 3.86667H11.3684ZM36 29.8197L4.29726 8.816C3.96109 9.70408 3.78892 10.648 3.78947 11.6V46.4C3.78947 48.451 4.58797 50.418 6.0093 51.8683C7.43062 53.3186 9.35836 54.1333 11.3684 54.1333H60.6316C62.6416 54.1333 64.5694 53.3186 65.9907 51.8683C67.412 50.418 68.2105 48.451 68.2105 46.4V11.6C68.2105 10.6179 68.0324 9.67827 67.7027 8.816L36 29.8159V29.8197Z" fill="black"/>
</svg>
