<svg width="22" height="22" viewBox="0 0 22 22" fill="none" xmlns="http://www.w3.org/2000/svg">
<path d="M1.61 15.86V19.61H5.36L16.42 8.54L12.67 4.79L1.61 15.86ZM21.22 16.97L16.97 21.22L11.77 16.02L13.54 14.25L14.54 15.25L17.01 12.77L18.43 14.19L16.97 15.61L18.03 16.61L19.45 15.21L21.22 16.97V16.97ZM5.22 9.44L0 4.25L4.25 0L6.01 1.77L3.54 4.25L4.61 5.31L7.07 2.83L8.49 4.25L7.07 5.66L8.07 6.66L5.22 9.44V9.44ZM19.32 5.61C19.71 5.22 19.71 4.61 19.32 4.2L16.98 1.9C16.61 1.51 15.96 1.51 15.57 1.9L13.73 3.73L17.48 7.48L19.32 5.61Z" fill="black"/>
</svg>
