<svg width="66" height="65" viewBox="0 0 66 65" fill="none" xmlns="http://www.w3.org/2000/svg">
<path d="M3.25662 10.2706L11.6576 1.87743C12.2502 1.2822 12.9546 0.809928 13.7302 0.48774C14.5059 0.165552 15.3376 -0.000201308 16.1775 1.83479e-07C17.8893 1.83479e-07 19.4985 0.67051 20.7054 1.87743L29.7453 10.9175C30.3405 11.5101 30.8128 12.2145 31.135 12.9902C31.4571 13.7659 31.6229 14.5976 31.6227 15.4375C31.6227 17.1493 30.9522 18.7585 29.7453 19.9654L23.135 26.5758C24.6823 29.9865 26.8336 33.0892 29.485 35.7342C32.1297 38.3921 35.2321 40.5513 38.6432 42.108L45.2536 35.4976C45.8462 34.9023 46.5505 34.4301 47.3262 34.1079C48.1019 33.7857 48.9336 33.6199 49.7735 33.6201C51.4853 33.6201 53.0945 34.2907 54.3014 35.4976L63.3492 44.5297C63.9451 45.1234 64.4178 45.8291 64.74 46.6062C65.0622 47.3833 65.2275 48.2164 65.2266 49.0576C65.2266 50.7694 64.5561 52.3786 63.3492 53.5856L54.964 61.9709C53.0392 63.9035 50.3809 65 47.6516 65C47.0757 65 46.5236 64.9527 45.9793 64.858C35.3459 63.1068 24.7994 57.4508 16.288 48.9472C7.78446 40.4515 2.13649 29.9126 0.361641 19.2476C-0.174759 15.9897 0.90593 12.6371 3.25662 10.2706Z" fill="black"/>
</svg>
