<svg width="53" height="52" viewBox="0 0 53 52" fill="none" xmlns="http://www.w3.org/2000/svg">
<path d="M48.764 51.9796C51.0266 51.9796 52.8678 50.1391 52.8678 47.8775V38.3061C52.8678 36.0445 51.0266 34.2041 48.764 34.2041C45.5631 34.2041 42.4169 33.7009 39.4074 32.7082C38.6881 32.4811 37.9205 32.4535 37.1867 32.6284C36.4529 32.8032 35.7803 33.1739 35.2407 33.7009L31.3011 37.6388C24.4919 33.9438 18.8996 28.3557 15.2007 21.5506L19.1075 17.6209C20.2346 16.5762 20.6395 14.9874 20.158 13.4587C19.1669 10.4459 18.6645 7.29394 18.6697 4.12243C18.6697 1.86083 16.8285 0.0203857 14.566 0.0203857H4.99049C2.72794 0.0203857 0.886719 1.86083 0.886719 4.12243C0.886719 30.5122 22.3631 51.9796 48.764 51.9796ZM4.99049 2.75508H14.566C14.9287 2.75508 15.2767 2.89914 15.5332 3.15557C15.7898 3.41199 15.9339 3.75978 15.9339 4.12243C15.9339 7.61463 16.481 11.0439 17.5562 14.2955C17.6352 14.5314 17.6445 14.7852 17.5828 15.0262C17.5212 15.2673 17.3913 15.4855 17.2088 15.6546L11.8575 21.031C16.336 29.8586 22.9513 36.4711 31.8237 40.9861L37.1558 35.6535C37.3378 35.4735 37.5653 35.3463 37.8139 35.2857C38.0626 35.225 38.3231 35.233 38.5675 35.3089C41.8396 36.3918 45.2704 36.9388 48.764 36.9388C49.5164 36.9388 50.132 37.5541 50.132 38.3061V47.8775C50.132 48.6296 49.5164 49.2449 48.764 49.2449C23.8733 49.2449 3.62257 29.0027 3.62257 4.12243C3.62257 3.75978 3.76669 3.41199 4.02322 3.15557C4.27976 2.89914 4.62769 2.75508 4.99049 2.75508Z" fill="black"/>
</svg>
