<svg width="46" height="65" viewBox="0 0 46 65" fill="none" xmlns="http://www.w3.org/2000/svg">
<path d="M3.83333 65V45.8824H0V42.0588H3.83333V30.5882H0V26.7647H3.83333V0H30.6667C34.7333 0 38.6334 1.61134 41.509 4.47954C44.3845 7.34775 46 11.2379 46 15.2941C46 19.3504 44.3845 23.2405 41.509 26.1087C38.6334 28.9769 34.7333 30.5882 30.6667 30.5882H7.66667V42.0588H30.6667V45.8824H7.66667V65H3.83333ZM7.66667 26.7647H30.6667C33.7167 26.7647 36.6417 25.5562 38.7984 23.4051C40.9551 21.2539 42.1667 18.3363 42.1667 15.2941C42.1667 12.2519 40.9551 9.33434 38.7984 7.18319C36.6417 5.03203 33.7167 3.82353 30.6667 3.82353H7.66667V26.7647Z" fill="black"/>
</svg>
