<svg width="24" height="24" viewBox="0 0 24 24" fill="none" xmlns="http://www.w3.org/2000/svg">
<path d="M18.707 11.707C18.8945 11.5195 18.9998 11.2652 18.9998 11C18.9998 10.7348 18.8945 10.4805 18.707 10.293L12.707 4.293C12.5195 4.10553 12.2652 4.00021 12 4.00021C11.7348 4.00021 11.4805 4.10553 11.293 4.293L5.29299 10.293C5.19748 10.3852 5.1213 10.4956 5.06889 10.6176C5.01648 10.7396 4.98889 10.8708 4.98774 11.0036C4.98659 11.1364 5.01189 11.2681 5.06217 11.391C5.11245 11.5139 5.1867 11.6255 5.28059 11.7194C5.37449 11.8133 5.48614 11.8875 5.60904 11.9378C5.73193 11.9881 5.86361 12.0134 5.99639 12.0123C6.12917 12.0111 6.26039 11.9835 6.38239 11.9311C6.5044 11.8787 6.61474 11.8025 6.70699 11.707L11 7.414V19C11 19.2652 11.1053 19.5196 11.2929 19.7071C11.4804 19.8946 11.7348 20 12 20C12.2652 20 12.5196 19.8946 12.7071 19.7071C12.8946 19.5196 13 19.2652 13 19V7.414L17.293 11.707C17.4805 11.8945 17.7348 11.9998 18 11.9998C18.2652 11.9998 18.5195 11.8945 18.707 11.707V11.707Z" fill="white"/>
</svg>
