<svg width="52" height="52" viewBox="0 0 52 52" fill="none" xmlns="http://www.w3.org/2000/svg">
<path d="M19.7948 5.85308e-08C23.5816 -8.14073e-05 27.2889 1.08556 30.4769 3.12811C33.6649 5.17067 36.1998 8.08441 37.7808 11.5236C39.3618 14.9628 39.9226 18.7832 39.3966 22.5314C38.8707 26.2796 37.28 29.7983 34.8133 32.6701L52 49.8482L49.8471 52L32.6574 34.8188C30.2331 36.891 27.3436 38.3468 24.2351 39.0623C21.1266 39.7778 17.8911 39.7317 14.8043 38.9281C11.7174 38.1245 8.87055 36.5871 6.50624 34.4468C4.14192 32.3065 2.33017 29.6268 1.22528 26.6359C0.120389 23.645 -0.244901 20.4315 0.16052 17.269C0.565941 14.1066 1.73006 11.089 3.55373 8.4731C5.37741 5.85725 7.8066 3.72069 10.6344 2.24539C13.4623 0.770087 16.6049 -0.000245169 19.7948 5.85308e-08ZM19.7948 3.04361C15.3529 3.04361 11.093 4.80726 7.95207 7.94659C4.81118 11.0859 3.04665 15.3438 3.04665 19.7834C3.04665 24.2231 4.81118 28.481 7.95207 31.6203C11.093 34.7596 15.3529 36.5233 19.7948 36.5233C24.2367 36.5233 28.4967 34.7596 31.6375 31.6203C34.7784 28.481 36.543 24.2231 36.543 19.7834C36.543 15.3438 34.7784 11.0859 31.6375 7.94659C28.4967 4.80726 24.2367 3.04361 19.7948 3.04361Z" fill="black"/>
</svg>
