<svg width="50" height="50" viewBox="0 0 50 50" fill="none" xmlns="http://www.w3.org/2000/svg">
<path d="M32.675 0H17.325C3.325 0 0 3.325 0 17.325V32.675C0 46.675 3.325 50 17.325 50H32.675C46.675 50 50 46.675 50 32.675V17.325C50 3.325 46.675 0 32.675 0ZM40.375 35.675H36.725C35.35 35.675 34.925 34.55 32.5 32.075C30.3 30 29.35 29.7 28.825 29.7C28.1 29.7 27.875 29.9 27.875 30.95V34.225C27.875 35.1 27.6 35.65 25.275 35.65C21.425 35.65 17.15 33.3 14.15 28.975C9.625 22.625 8.4 17.825 8.4 16.875C8.4 16.35 8.575 15.85 9.625 15.85H13.3C14.225 15.85 14.575 16.25 14.925 17.25C16.725 22.5 19.725 27 20.95 27C21.425 27 21.625 26.775 21.625 25.625V20.25C21.5 17.8 20.175 17.575 20.175 16.7C20.175 16.25 20.525 15.85 21.1 15.85H26.825C27.6 15.85 27.875 16.25 27.875 17.2V24.425C27.875 25.2 28.2 25.475 28.45 25.475C28.9 25.475 29.3 25.2 30.125 24.35C32.75 21.425 34.625 16.9 34.625 16.9C34.875 16.375 35.275 15.875 36.25 15.875H39.825C40.925 15.875 41.175 16.45 40.925 17.225C40.475 19.35 36.025 25.625 36.075 25.625C35.675 26.25 35.525 26.525 36.075 27.25C36.45 27.775 37.725 28.875 38.575 29.85C40.125 31.625 41.325 33.1 41.65 34.125C41.925 35.15 41.425 35.675 40.375 35.675Z" fill="black"/>
</svg>
