<svg width="55" height="55" viewBox="0 0 55 55" fill="none" xmlns="http://www.w3.org/2000/svg">
<path d="M27.8594 0.285868C12.9217 0.285868 0.747189 12.4553 0.747189 27.3867C0.747189 32.1724 2.00568 36.8214 4.35851 40.9234L0.52832 54.9797L14.8915 51.2059C18.8585 53.3663 23.3179 54.5148 27.8594 54.5148C42.7972 54.5148 54.9717 42.3455 54.9717 27.414C54.9717 20.1671 52.1538 13.3577 47.0377 8.24383C44.5295 5.7113 41.5419 3.70333 38.2492 2.33703C34.9565 0.97073 31.4246 0.273454 27.8594 0.285868ZM27.8868 4.85281C33.9057 4.85281 39.5415 7.20464 43.8094 11.4708C45.904 13.5638 47.5647 16.0495 48.6961 18.7854C49.8276 21.5213 50.4076 24.4536 50.4028 27.414C50.4028 39.8295 40.2802 49.9206 27.8594 49.9206C23.8104 49.9206 19.8434 48.854 16.3962 46.7757L15.5755 46.3108L7.03964 48.5532L9.31039 40.2397L8.76322 39.3646C6.50325 35.7786 5.30788 31.625 5.31606 27.3867C5.34341 14.9712 15.4387 4.85281 27.8868 4.85281ZM18.2566 14.8618C17.8189 14.8618 17.0802 15.0259 16.451 15.7095C15.8491 16.3932 14.0708 18.0614 14.0708 21.3704C14.0708 24.7067 16.5057 27.9063 16.8066 28.3712C17.1896 28.8361 21.6217 35.6728 28.434 38.5716C30.0481 39.3099 31.3066 39.7201 32.2915 40.021C33.9057 40.5406 35.383 40.4585 36.5594 40.2944C37.8727 40.103 40.5538 38.6536 41.1283 37.0675C41.7028 35.4814 41.7028 34.1414 41.5387 33.8406C41.3472 33.5671 40.9094 33.403 40.2255 33.1022C39.5415 32.7193 36.2038 31.0785 35.6019 30.8597C34.9727 30.641 34.5896 30.5316 34.0698 31.1879C33.6321 31.8716 32.3189 33.403 31.9359 33.8406C31.5255 34.3055 31.1425 34.3601 30.4859 34.032C29.7745 33.6765 27.5859 32.9655 25.0142 30.6683C22.9896 28.8634 21.6491 26.6483 21.2387 25.9646C20.9104 25.3083 21.2113 24.8981 21.5396 24.5973C21.8406 24.2965 22.2783 23.8042 22.5519 23.394C22.9076 23.0112 23.017 22.7104 23.2359 22.2728C23.4547 21.8079 23.3453 21.425 23.1811 21.0969C23.017 20.7961 21.6491 17.4051 21.0745 16.0651C20.5274 14.7524 19.9802 14.9165 19.5425 14.8891C19.1594 14.8891 18.7217 14.8618 18.2566 14.8618Z" fill="black"/>
</svg>
