<svg width="53" height="52" fill="none" xmlns="http://www.w3.org/2000/svg"><path d="M41.264 41.04a5.473 5.473 0 015.472 5.47 5.468 5.468 0 01-5.472 5.47 5.473 5.473 0 01-5.471-5.47 5.468 5.468 0 015.471-5.47zm0 2.736a2.736 2.736 0 00-1.934 4.668 2.736 2.736 0 003.869-3.867 2.736 2.736 0 00-1.935-.801zM16.642 41.04a5.473 5.473 0 015.471 5.47 5.468 5.468 0 01-5.471 5.469 5.473 5.473 0 01-5.472-5.47 5.468 5.468 0 015.472-5.47zm0 2.735a2.736 2.736 0 00-1.935 4.668 2.736 2.736 0 003.87-3.867 2.736 2.736 0 00-1.935-.801zM46.736 8.224H9.18l6.968 16.409h22.38a2.719 2.719 0 002.188-1.1l8.208-10.939h.002a2.734 2.734 0 00-2.191-4.37zm-8.208 19.143H16.275l-2.096 4.267-.273 1.203a2.734 2.734 0 002.736 2.734h30.094v2.735H16.642a5.473 5.473 0 01-5.474-5.398 5.466 5.466 0 01.686-2.724l1.97-4.03-9.937-23.4H.227V.02h5.471l2.323 5.47h38.715a5.473 5.473 0 015.433 6.116 5.47 5.47 0 01-1.184 2.799l-7.972 10.627a5.466 5.466 0 01-4.485 2.335z" fill="#000"/></svg>