<svg width="20" height="20" fill="none" xmlns="http://www.w3.org/2000/svg"><path d="M12 6a.667.667 0 00-1.333 0v2h-2a.667.667 0 000 1.334h2v2a.666.666 0 101.333 0v-2h2A.667.667 0 1014 8h-2V6z" fill="#fff"/><path d="M.667 0a.667.667 0 100 1.333h1.48l.534 2.143L4.68 14.123a.667.667 0 00.654.544h1.334a2.667 2.667 0 100 5.333 2.667 2.667 0 000-5.333H16A2.667 2.667 0 1016 20a2.667 2.667 0 000-5.333h1.333a.667.667 0 00.655-.544l2-10.667a.668.668 0 00-.655-.79H3.854l-.54-2.16A.667.667 0 002.666 0h-2zm5.22 13.333L4.137 4H18.53l-1.75 9.333H5.886zm2.113 4a1.333 1.333 0 11-2.666 0 1.333 1.333 0 012.666 0zm9.334 0a1.333 1.333 0 11-2.666 0 1.333 1.333 0 012.666 0z" fill="#fff"/></svg>