<svg width="20" height="20" fill="none" xmlns="http://www.w3.org/2000/svg"><path d="M18.571 0H1.43C.639 0 0 .689 0 1.538v.77c0 .85.64 1.538 1.429 1.538H18.57c.79 0 1.429-.689 1.429-1.538v-.77C20 .688 19.36 0 18.571 0zM1.895 5.385c-.05 0-.1.01-.146.032a.36.36 0 00-.12.094.392.392 0 00-.091.298l1.174 12.142v.011a2.37 2.37 0 00.705 1.455c.392.376.9.583 1.424.583h10.317c.525 0 1.031-.207 1.424-.583a2.37 2.37 0 00.704-1.455v-.01l1.173-12.143a.413.413 0 00-.09-.298.36.36 0 00-.122-.094.336.336 0 00-.145-.032H1.895zm11.11 8.687a.776.776 0 01.159.25.823.823 0 01.004.593.777.777 0 01-.156.252.712.712 0 01-.234.168.669.669 0 01-.552-.004.716.716 0 01-.232-.172L10 13.011 8.005 15.16a.688.688 0 01-.503.218.69.69 0 01-.5-.226.8.8 0 01-.21-.538.802.802 0 01.203-.541l1.995-2.149-1.995-2.148a.802.802 0 01-.202-.542.8.8 0 01.21-.538.69.69 0 01.499-.225.688.688 0 01.503.217L10 10.835l1.995-2.148a.688.688 0 01.502-.217.69.69 0 01.5.225.8.8 0 01.21.538.802.802 0 01-.202.542l-1.995 2.148 1.995 2.149z" fill="#333"/></svg>