<svg width="13" height="13" fill="none" xmlns="http://www.w3.org/2000/svg"><path d="M12.764 2.812L8.22.062a.422.422 0 00-.438 0l-4.546 2.75a.478.478 0 00-.172.184.539.539 0 000 .508c.042.077.101.14.172.184l4.31 2.607v5.36l-1.38-.835-.438.875 2.054 1.243a.42.42 0 00.438 0l4.546-2.75a.477.477 0 00.172-.184A.538.538 0 0013 9.75v-6.5a.539.539 0 00-.063-.254.478.478 0 00-.172-.184zM8 1.07l3.602 2.179L8 5.429l-3.602-2.18L8 1.072zm4.09 8.383l-3.636 2.2v-5.36l3.637-2.2v5.36z" fill="#fff"/><path d="M4 7H0V6h4v1zm1 4H1v-1h4v1zm1-2H2V8h4v1z" fill="#fff"/></svg>