<svg width="53" height="48" fill="none" xmlns="http://www.w3.org/2000/svg"><path d="M7.063 23.322a11.622 11.622 0 01-2.02-13.716 11.624 11.624 0 0112.555-5.891 11.63 11.63 0 017.787 5.63h3.058a11.623 11.623 0 017.787-5.63 11.632 11.632 0 0112.556 5.89 11.62 11.62 0 01-2.02 13.717L26.913 43.171 7.063 23.325v-.003zm41.634 1.942a14.356 14.356 0 00-.833-21.073 14.365 14.365 0 00-20.95 2.49 14.362 14.362 0 00-15.79-5.31 14.365 14.365 0 00-8.757 7.472 14.352 14.352 0 002.764 16.42l21.783 21.772 21.783-21.768v-.003z" fill="#000"/></svg>