<svg width="36" height="53" fill="none" xmlns="http://www.w3.org/2000/svg"><path d="M17.78 10.954a6.84 6.84 0 016.84 6.837 6.835 6.835 0 01-6.84 6.837 6.841 6.841 0 01-6.84-6.837 6.835 6.835 0 016.84-6.837zm0 2.735a4.105 4.105 0 00-4.104 4.102 4.101 4.101 0 004.104 4.102 4.105 4.105 0 004.104-4.102 4.101 4.101 0 00-4.104-4.102zM4.922 25.604l12.858 21.14 12.859-21.14a15.037 15.037 0 00-5.262-20.795 15.052 15.052 0 00-20.712 5.61 15.036 15.036 0 00.257 15.185zm28.053 1.422L17.78 52.008 2.585 27.026a17.77 17.77 0 016.22-24.574A17.789 17.789 0 0133.282 9.08a17.769 17.769 0 01-.301 17.945h-.006z" fill="#000"/></svg>