<svg width="22" height="22" fill="none" xmlns="http://www.w3.org/2000/svg"><path d="M13 2.269C13 1.568 12.432 1 11.731 1H10.27C9.568 1 9 1.568 9 2.269c0 .578-.396 1.074-.935 1.286-.085.034-.17.07-.253.106-.531.23-1.162.16-1.572-.249a1.269 1.269 0 00-1.794 0L3.412 4.446a1.269 1.269 0 000 1.794v0c.41.41.48 1.04.248 1.572a7.937 7.937 0 00-.105.253C3.343 8.604 2.847 9 2.269 9 1.568 9 1 9.568 1 10.269v1.462C1 12.432 1.568 13 2.269 13c.578 0 1.074.396 1.286.935.034.085.07.17.105.253.231.531.161 1.162-.248 1.572a1.27 1.27 0 000 1.794l1.034 1.034a1.269 1.269 0 001.794 0c.41-.41 1.04-.48 1.572-.249.083.037.168.072.253.106.539.212.935.708.935 1.286C9 20.432 9.568 21 10.269 21h1.462c.701 0 1.269-.568 1.269-1.269 0-.578.396-1.074.935-1.287.085-.033.17-.068.253-.104.531-.232 1.162-.161 1.571.248a1.268 1.268 0 001.795 0l1.034-1.034a1.27 1.27 0 000-1.794v0c-.41-.41-.48-1.04-.249-1.572.037-.083.072-.168.106-.253.212-.539.708-.935 1.286-.935.701 0 1.269-.568 1.269-1.269V10.27c0-.701-.568-1.269-1.269-1.269-.578 0-1.074-.396-1.287-.935a7.715 7.715 0 00-.105-.253c-.23-.531-.16-1.162.249-1.572a1.269 1.269 0 000-1.794l-1.034-1.034a1.27 1.27 0 00-1.794 0v0c-.41.41-1.04.48-1.572.249a7.946 7.946 0 00-.253-.106C13.396 3.343 13 2.847 13 2.27v-.001z" stroke="#fff" stroke-width="2"/><path d="M15 11a4 4 0 11-8 0 4 4 0 018 0v0z" stroke="#fff" stroke-width="2"/></svg>