<svg width="56" height="55" fill="none" xmlns="http://www.w3.org/2000/svg"><path d="M16.472.02h22.981c8.755 0 15.868 7.11 15.868 15.862v22.971c0 4.207-1.672 8.241-4.648 11.216a15.871 15.871 0 01-11.22 4.645H16.472c-8.755 0-15.868-7.11-15.868-15.861V15.882c0-4.207 1.672-8.241 4.648-11.216A15.871 15.871 0 0116.472.02zm-.547 5.47a9.851 9.851 0 00-9.85 9.845V39.4a9.84 9.84 0 009.85 9.845H40a9.851 9.851 0 009.85-9.845V15.335A9.84 9.84 0 0040 5.49H15.925zm26.4 4.102a3.42 3.42 0 013.42 3.418 3.418 3.418 0 01-3.42 3.419 3.42 3.42 0 01-3.42-3.419 3.418 3.418 0 013.42-3.418zm-14.363 4.102a13.68 13.68 0 019.673 4.005 13.67 13.67 0 01-9.672 23.342c-3.629 0-7.108-1.44-9.673-4.005a13.67 13.67 0 019.672-23.342zm0 5.47a8.21 8.21 0 00-8.207 8.203 8.203 8.203 0 008.207 8.204 8.209 8.209 0 008.208-8.204 8.202 8.202 0 00-8.208-8.204z" fill="#000"/></svg>