<svg width="72" height="58" fill="none" xmlns="http://www.w3.org/2000/svg"><path d="M11.368 0h49.264c3.015 0 5.906 1.222 8.038 3.398A11.72 11.72 0 0172 11.6v34.8a11.72 11.72 0 01-3.33 8.202A11.254 11.254 0 0160.632 58H11.368a11.254 11.254 0 01-8.038-3.398A11.72 11.72 0 010 46.4V11.6c0-3.077 1.198-6.027 3.33-8.202A11.255 11.255 0 0111.368 0zm0 3.867a7.446 7.446 0 00-4.861 1.802L36 25.21 65.493 5.669a7.458 7.458 0 00-4.861-1.802H11.368zM36 29.82L4.297 8.816A7.853 7.853 0 003.79 11.6v34.8c0 2.051.799 4.018 2.22 5.468a7.503 7.503 0 005.36 2.265h49.263c2.01 0 3.937-.814 5.359-2.265a7.814 7.814 0 002.22-5.468V11.6c0-.982-.179-1.922-.508-2.784L36 29.816v.004z" fill="#000"/></svg>