<svg width="66" height="65" fill="none" xmlns="http://www.w3.org/2000/svg"><path d="M3.257 10.27l8.4-8.393A6.376 6.376 0 0116.178 0c1.712 0 3.322.67 4.528 1.877l9.04 9.04a6.376 6.376 0 011.878 4.52c0 1.712-.67 3.322-1.878 4.528l-6.61 6.61a31.064 31.064 0 006.35 9.16 31.183 31.183 0 009.158 6.373l6.61-6.61a6.374 6.374 0 014.52-1.878c1.712 0 3.321.67 4.528 1.878l9.048 9.032a6.381 6.381 0 011.878 4.528c0 1.711-.67 3.32-1.878 4.528l-8.385 8.385A10.368 10.368 0 0147.652 65a9.693 9.693 0 01-1.673-.142c-10.633-1.751-21.18-7.407-29.691-15.91C7.784 40.451 2.136 29.912.362 19.247c-.537-3.258.544-6.61 2.895-8.977z" fill="#000"/></svg>