<svg width="53" height="52" fill="none" xmlns="http://www.w3.org/2000/svg"><path d="M48.764 51.98a4.108 4.108 0 004.104-4.102v-9.572a4.108 4.108 0 00-4.104-4.102c-3.2 0-6.347-.503-9.357-1.496a4.167 4.167 0 00-4.166.993l-3.94 3.938a40.085 40.085 0 01-16.1-16.088l3.907-3.93c1.127-1.045 1.532-2.634 1.05-4.162a29.721 29.721 0 01-1.488-9.337A4.108 4.108 0 0014.566.02H4.99A4.108 4.108 0 00.887 4.122c0 26.39 21.476 47.858 47.877 47.858zM4.99 2.755h9.576a1.368 1.368 0 011.368 1.367c0 3.493.547 6.922 1.622 10.174a1.292 1.292 0 01-.347 1.359l-5.351 5.376c4.478 8.828 11.093 15.44 19.966 19.955l5.332-5.332a1.411 1.411 0 011.412-.345 32.392 32.392 0 0010.196 1.63c.752 0 1.368.615 1.368 1.367v9.572c0 .752-.616 1.367-1.368 1.367-24.89 0-45.141-20.242-45.141-45.123A1.367 1.367 0 014.99 2.755z" fill="#000"/></svg>