<svg width="50" height="50" fill="none" xmlns="http://www.w3.org/2000/svg"><path d="M32.675 0h-15.35C3.325 0 0 3.325 0 17.325v15.35C0 46.675 3.325 50 17.325 50h15.35C46.675 50 50 46.675 50 32.675v-15.35C50 3.325 46.675 0 32.675 0zm7.7 35.675h-3.65c-1.375 0-1.8-1.125-4.225-3.6C30.3 30 29.35 29.7 28.825 29.7c-.725 0-.95.2-.95 1.25v3.275c0 .875-.275 1.425-2.6 1.425-3.85 0-8.125-2.35-11.125-6.675-4.525-6.35-5.75-11.15-5.75-12.1 0-.525.175-1.025 1.225-1.025H13.3c.925 0 1.275.4 1.625 1.4 1.8 5.25 4.8 9.75 6.025 9.75.475 0 .675-.225.675-1.375V20.25c-.125-2.45-1.45-2.675-1.45-3.55 0-.45.35-.85.925-.85h5.725c.775 0 1.05.4 1.05 1.35v7.225c0 .775.325 1.05.575 1.05.45 0 .85-.275 1.675-1.125 2.625-2.925 4.5-7.45 4.5-7.45.25-.525.65-1.025 1.625-1.025h3.575c1.1 0 1.35.575 1.1 1.35-.45 2.125-4.9 8.4-4.85 8.4-.4.625-.55.9 0 1.625.375.525 1.65 1.625 2.5 2.6 1.55 1.775 2.75 3.25 3.075 4.275.275 1.025-.225 1.55-1.275 1.55z" fill="#000"/></svg>