<svg width="55" height="55" fill="none" xmlns="http://www.w3.org/2000/svg"><path d="M27.86.286C12.921.286.746 12.456.746 27.386A27.17 27.17 0 004.36 40.924L.529 54.98l14.362-3.774a27.128 27.128 0 0012.968 3.309c14.938 0 27.113-12.17 27.113-27.101 0-7.247-2.818-14.056-7.934-19.17A26.856 26.856 0 0027.859.286zm.027 4.567c6.019 0 11.654 2.352 15.922 6.618a22.491 22.491 0 016.594 15.943c0 12.416-10.123 22.507-22.544 22.507-4.049 0-8.016-1.067-11.463-3.145l-.82-.465-8.536 2.242 2.27-8.313-.547-.875a22.384 22.384 0 01-3.447-11.978C5.343 14.97 15.44 4.853 27.886 4.853zm-9.63 10.009c-.438 0-1.177.164-1.806.848-.602.683-2.38 2.351-2.38 5.66 0 3.337 2.435 6.536 2.736 7.001.383.465 4.815 7.302 11.627 10.2a29.572 29.572 0 003.857 1.45c1.615.52 3.092.438 4.268.273 1.314-.191 3.995-1.64 4.57-3.226.574-1.587.574-2.927.41-3.227-.192-.274-.63-.438-1.314-.739-.684-.383-4.021-2.023-4.623-2.242-.63-.219-1.012-.328-1.532.328-.438.684-1.751 2.215-2.134 2.653-.41.465-.794.52-1.45.191-.712-.355-2.9-1.066-5.472-3.364-2.024-1.805-3.365-4.02-3.775-4.703-.329-.657-.028-1.067.3-1.368.302-.3.74-.793 1.013-1.203.356-.383.465-.684.684-1.121.219-.465.11-.848-.055-1.176-.164-.3-1.532-3.692-2.107-5.032-.547-1.313-1.094-1.149-1.532-1.176-.383 0-.82-.027-1.285-.027z" fill="#000"/></svg>