<svg width="180" height="145" fill="none" xmlns="http://www.w3.org/2000/svg"><path d="M19.484 116.156H4V4h125.129v20.088m0 0h28.457L176 69.703m-46.871-45.615v45.615m46.871 0h-46.871m46.871 0v46.453h-15.066m-31.805-46.453V92.72m-60.681 23.436h43.523m-41.85-1.256c0 14.561-11.803 26.365-26.364 26.365S17.392 129.461 17.392 114.9c0-14.561 11.804-26.365 26.365-26.365 14.56 0 26.365 11.804 26.365 26.365zm92.906 0c0 14.561-11.804 26.365-26.365 26.365-14.561 0-26.365-11.804-26.365-26.365 0-14.561 11.804-26.365 26.365-26.365 14.561 0 26.365 11.804 26.365 26.365z" stroke="#00a64c" stroke-width="7"/></svg>