<svg width="191" height="180" fill="none" xmlns="http://www.w3.org/2000/svg"><path d="M3 3V0H0v3h3zm0 173.5H0v3h3v-3zm76.5 0v3h3v-3h-3zM79.5 3h3V0h-3v3zm-60 156.5h-3v3h3v-3zm42.5 0v3h3v-3h-3zM62 20h3v-3h-3v3zm-42.5 0v-3h-3v3h3zm92-16.5v-3h-3v3h3zm0 173.5h-3v3h3v-3zm76.5 0v3h3v-3h-3zm0-173.5h3v-3h-3v3zm-36.886 15.785a3 3 0 10-2.228-5.57l2.228 5.57zM125 26.5l-1.114-2.785A3 3 0 00122 26.5h3zm0 61.5h-3a3 3 0 001.984 2.823L125 88zm23.984 11.823a3 3 0 002.032-5.646l-2.032 5.646zm1.63-86.108a3 3 0 10-2.228 5.57l2.228-5.57zM174.5 26.5h3a3 3 0 00-1.886-2.785L174.5 26.5zm0 61.5l1.016 2.823A3 3 0 00177.5 88h-3zm-26.016 6.177a3 3 0 002.032 5.646l-2.032-5.646zM125.5 108l1.471-2.615-4.471-2.515V108h3zm0 55h-3v3h3v-3zm16 0v3h3v-3h-3zm0-46h3v-1.755l-1.529-.86L141.5 117zm33-9h3v-5.13l-4.471 2.515L174.5 108zm0 55v3h3v-3h-3zm-16 0h-3v3h3v-3zm0-46l-1.471-2.615-1.529.86V117h3zm-37-19.5v-3a3 3 0 00-3 3h3zm0 1h-3a3 3 0 003 3v-3zm1 0v3a3 3 0 003-3h-3zm0-1h3a3 3 0 00-3-3v3zM0 3v173.5h6V3H0zm3 176.5h76.5v-6H3v6zm79.5-3V3h-6v173.5h6zM79.5 0H3v6h76.5V0zm-60 162.5H62v-6H19.5v6zM62 17H19.5v6H62v-6zm-45.5 3v21.5h6V20h-6zM65 41.5V20h-6v21.5h6zm-45.5 3H62v-6H19.5v6zm-3-3v25h6v-25h-6zm48.5 25v-25h-6v25h6zm-45.5 3H62v-6H19.5v6zm-3-3v23h6v-23h-6zm48.5 23v-23h-6v23h6zm-45.5 3H62v-6H19.5v6zm-3-3v13h6v-13h-6zm0 13v11h6v-11h-6zm48.5 11v-24h-6v24h6zm-45.5 3H62v-6H19.5v6zm-3-3v23h6v-23h-6zm0 23v23h6v-23h-6zm48.5 23v-23h-6v23h6zm0-23v-23h-6v23h6zm-45.5 3H62v-6H19.5v6zm-6-34h6v-6h-6v6zm6 0h6v-6h-6v6zm89-102V177h6V3.5h-6zm3 176.5H188v-6h-76.5v6zm79.5-3V3.5h-6V177h6zM188 .5h-76.5v6H188v-6zm-39.114 13.215l-25 10 2.228 5.57 25-10-2.228-5.57zM122 26.5V88h6V26.5h-6zm1.984 64.323l25 9 2.032-5.646-25-9-2.032 5.646zm24.402-71.538l25 10 2.228-5.57-25-10-2.228 5.57zM171.5 26.5V88h6V26.5h-6zm1.984 58.677l-25 9 2.032 5.646 25-9-2.032-5.646zM122.5 108v55h6v-55h-6zm3 58h16v-6h-16v6zm19-3v-46h-6v46h6zm-20.471-52.385l16 9 2.942-5.23-16-9-2.942 5.23zM171.5 108v55h6v-55h-6zm3 52h-16v6h16v-6zm-13 3v-46h-6v46h6zm11.529-57.615l-16 9 2.942 5.23 16-9-2.942-5.23zM118.5 97.5v1h6v-1h-6zm3 4h1v-6h-1v6zm4-3v-1h-6v1h6zm-3-4h-1v6h1v-6z" fill="#00a64c"/></svg>