<svg width="19" height="25" fill="none" xmlns="http://www.w3.org/2000/svg"><path d="M9.12 5.258c.931 0 1.824.346 2.482.963a3.187 3.187 0 011.027 2.325c0 .872-.37 1.708-1.027 2.324a3.632 3.632 0 01-2.481.963 3.63 3.63 0 01-2.481-.963 3.186 3.186 0 01-1.028-2.324c0-.872.37-1.709 1.028-2.325a3.632 3.632 0 012.48-.963zm0 1.315c-.558 0-1.093.208-1.488.578s-.616.872-.616 1.395.221 1.025.616 1.395c.395.37.93.577 1.489.577.558 0 1.093-.208 1.488-.577.395-.37.617-.872.617-1.395s-.222-1.025-.617-1.395a2.179 2.179 0 00-1.488-.578zm-6.595 5.73L9.12 22.468l6.596-10.165a6.9 6.9 0 001.121-3.635 6.876 6.876 0 00-.99-3.667 7.482 7.482 0 00-2.83-2.698 8.12 8.12 0 00-3.897-.99 8.12 8.12 0 00-3.897.99A7.482 7.482 0 002.394 5a6.877 6.877 0 00-.99 3.667 6.9 6.9 0 001.12 3.635zm14.39.684L9.121 25 1.326 12.987A8.155 8.155 0 01.001 8.692a8.127 8.127 0 011.17-4.335A8.843 8.843 0 014.518 1.17 9.595 9.595 0 019.122 0a9.59 9.59 0 014.605 1.17 8.843 8.843 0 013.346 3.187 8.129 8.129 0 011.17 4.335 8.155 8.155 0 01-1.325 4.295h-.003z" fill="#999"/></svg>