<svg width="25" height="20" fill="none" xmlns="http://www.w3.org/2000/svg"><path d="M3.947 0h17.106c1.046 0 2.05.421 2.79 1.172A4.027 4.027 0 0125 4v12c0 1.06-.416 2.078-1.156 2.828A3.92 3.92 0 0121.053 20H3.947a3.921 3.921 0 01-2.79-1.172A4.027 4.027 0 010 16V4c0-1.06.416-2.078 1.156-2.828A3.921 3.921 0 013.947 0zm0 1.333a2.6 2.6 0 00-1.688.622L12.5 8.693l10.24-6.738a2.6 2.6 0 00-1.687-.622H3.947zm8.553 8.95L1.492 3.04a2.691 2.691 0 00-.176.96v12c0 .707.277 1.386.77 1.886.494.5 1.163.78 1.861.78h17.106a2.61 2.61 0 001.86-.78c.494-.5.771-1.179.771-1.886V4c0-.339-.062-.663-.176-.96L12.5 10.281v.002z" fill="#999"/></svg>