<svg width="25" height="25" fill="none" xmlns="http://www.w3.org/2000/svg"><path d="M16.337 0H8.662C1.662 0 0 1.663 0 8.662v7.675C0 23.337 1.663 25 8.662 25h7.675c7 0 8.663-1.663 8.663-8.663V8.662C25 1.662 23.337 0 16.337 0zm3.85 17.837h-1.825c-.687 0-.9-.562-2.112-1.8-1.1-1.037-1.575-1.187-1.838-1.187-.362 0-.475.1-.475.625v1.638c0 .437-.137.712-1.3.712-1.925 0-4.062-1.175-5.562-3.337C4.812 11.313 4.2 8.913 4.2 8.438c0-.263.087-.513.612-.513H6.65c.462 0 .637.2.813.7.9 2.625 2.4 4.875 3.012 4.875.238 0 .338-.113.338-.688v-2.687c-.063-1.225-.726-1.338-.726-1.775 0-.225.175-.425.463-.425h2.862c.388 0 .525.2.525.675v3.613c0 .387.163.525.288.525.225 0 .425-.138.838-.563 1.312-1.463 2.25-3.725 2.25-3.725.125-.262.325-.512.812-.512h1.788c.55 0 .674.287.55.675-.226 1.062-2.45 4.2-2.425 4.2-.2.312-.276.45 0 .812.187.262.825.813 1.25 1.3.774.887 1.375 1.625 1.537 2.137.137.513-.113.775-.637.775z" fill="#999"/></svg>