<svg width="25" height="25" fill="none" xmlns="http://www.w3.org/2000/svg"><path d="M12.55 0C5.69 0 .1 5.563.1 12.387c0 2.188.578 4.313 1.659 6.188L0 25l6.595-1.725a12.502 12.502 0 005.955 1.513C19.41 24.788 25 19.225 25 12.4c0-3.312-1.294-6.425-3.643-8.762a12.337 12.337 0 00-4.036-2.7A12.386 12.386 0 0012.551 0zm.013 2.088a10.29 10.29 0 017.311 3.025 10.279 10.279 0 012.244 3.343c.52 1.25.786 2.59.784 3.944 0 5.675-4.648 10.287-10.352 10.287-1.859 0-3.68-.487-5.264-1.437l-.376-.212-3.92 1.024 1.043-3.8-.252-.4a10.197 10.197 0 01-1.583-5.474c.013-5.675 4.649-10.3 10.365-10.3zM8.14 6.663c-.201 0-.54.075-.83.387-.276.313-1.092 1.075-1.092 2.588 0 1.524 1.118 2.987 1.256 3.2.176.212 2.21 3.337 5.34 4.662.74.337 1.318.525 1.77.663.742.237 1.42.2 1.96.125.603-.088 1.834-.75 2.098-1.476.264-.725.264-1.337.189-1.475-.088-.124-.29-.2-.603-.337-.314-.175-1.847-.925-2.123-1.025-.29-.1-.465-.15-.704.15-.201.313-.804 1.012-.98 1.213-.188.212-.364.237-.666.087-.326-.163-1.331-.488-2.512-1.538-.93-.825-1.546-1.837-1.734-2.15-.15-.3-.013-.487.138-.624.138-.138.34-.363.465-.55.163-.176.214-.313.314-.513.1-.212.05-.387-.025-.537-.075-.138-.704-1.688-.967-2.3-.252-.6-.503-.525-.704-.538-.176 0-.377-.012-.59-.012z" fill="#999"/></svg>